<?xml version="1.0" encoding="UTF-8" standalone="no"?>
<!-- Created with Inkscape (http://www.inkscape.org/) -->

<svg
   xmlns:dc="http://purl.org/dc/elements/1.1/"
   xmlns:cc="http://creativecommons.org/ns#"
   xmlns:rdf="http://www.w3.org/1999/02/22-rdf-syntax-ns#"
   xmlns:svg="http://www.w3.org/2000/svg"
   xmlns="http://www.w3.org/2000/svg"
   version="1.1"
   width="744.09448"
   height="1052.3622"
   id="svg2">
  <defs
     id="defs4" />
  <metadata
     id="metadata7">
    <rdf:RDF>
      <cc:Work
         rdf:about="">
        <dc:format>image/svg+xml</dc:format>
        <dc:type
           rdf:resource="http://purl.org/dc/dcmitype/StillImage" />
        <dc:title></dc:title>
      </cc:Work>
    </rdf:RDF>
  </metadata>
  <g
     id="layer1">
    <g
       transform="translate(-356.95279,107.68109)"
       id="g2990">
      <g
         id="g2992">
        <path
           d="m 1366.8751,0 c 0,0 7.4885,15.413612 2.4676,29.294719 -5.0208,13.881108 -6.5759,-4.007787 -19.3393,-2.374213 -12.7634,1.633574 -7.7572,30.885084 2.8695,31.75934 10.6267,0.874256 11.5152,-16.461144 18.1051,-4.546114 6.5898,11.915029 7.9771,43.820756 1.8491,57.160948 -6.128,13.3402 -6.0979,-3.69276 -19.2612,-2.27481 -13.1633,1.41794 -10.8284,31.03273 0.5278,32.59511 11.3562,1.56238 9.7468,-15.08983 16.1258,-3.80813 6.3789,11.2817 4.2131,41.83832 -1.5605,55.46716 -5.7737,13.62884 -4.1433,2.87621 -18.0253,3.03078 -13.882,0.15456 -7.1692,25.18498 3.3975,25.9461 10.5668,0.76112 8.5506,-7.92411 14.8467,3.22502 6.2962,11.14914 -8.7244,38.54803 -3.3771,52.36655 5.3472,13.81851 4.8063,0.24585 17.9946,1.64535 13.1884,1.3995 7.4147,25.77538 -4.3152,27.4747 -11.7299,1.69932 -11.5027,-12.09669 -16.5605,-1.69265 -5.0578,10.40403 -6.4888,46.46933 0.053,59.07409 6.5418,12.60475 3.6259,-2.2051 16.8993,-0.87351 13.2734,1.33159 14.5823,27.89005 4.181,28.06668 -10.4013,0.17663 -12.7123,-9.6485 -18.7746,1.22659 -6.0624,10.87509 11.8924,41.9117 5.8416,55.3288 -6.0508,13.41711 -4.7756,-5.22056 -18.5659,-4.64167 -13.7902,0.5789 -13.6,31.45801 -1.5013,33.20575 12.0987,1.74775 15.4815,-13.59751 22.085,-1.51712 6.6034,12.08039 -17.2084,39.6984 -10.6556,52.26103 6.5528,12.56264 5.4445,2.67407 18.3719,4.23528 12.9274,1.56122 9.0575,26.81625 -1.4142,27.3371 -10.4718,0.52086 -9.0008,-9.29034 -14.1006,1.11908 -5.0998,10.40942 -8.3373,41.01722 -3.281,54.89462 5.0562,13.87739 7.4963,-0.96416 21.0189,0.10668 13.5225,1.07085 8.1016,28.58678 -2.4342,29.28021 -10.5358,0.69342 -9.4049,-12.953 -14.8164,-2.47009 -5.4116,10.4829 13.2897,40.65824 7.0109,53.81504 -6.2789,13.1568 -7.652,1.79142 -20.1917,3.49351 -12.5397,1.70209 -12.8698,25.18677 -2.2462,26.05575 10.6237,0.86897 15.8114,-9.93726 22.401,1.97572 6.5897,11.91297 -16.7965,43.22701 -10.1953,55.47634 6.6011,12.24934 4.0186,-1.80373 17.4064,-0.5786 13.3878,1.22513 10.6109,25.30291 -0.4012,26.63811 -11.012,1.33521 -9.6468,-12.34717 -15.8032,-1.37528 -6.1565,10.97189 3.3678,29.59605 3.3678,29.59605"
           id="XDiv1"
           style="fill:none;stroke:#0000ff;stroke-width:0.1;stroke-linecap:butt;stroke-linejoin:miter" />
        <path
           d="m 1275.7501,0 c 0,0 9.5312,11.194386 4.2455,25.029694 -5.2857,13.835308 -6.8589,2.811646 -19.2416,4.543052 -12.3827,1.731405 -10.5554,23.012829 0.7233,24.53388 11.2788,1.521051 9.2324,-10.364894 15.7869,1.360776 6.5546,11.72567 9.6122,40.617561 3.1342,53.411168 -6.478,12.79362 -7.8794,2.40318 -20.4043,4.10867 -12.525,1.70549 -10.4513,23.42018 0.6895,24.85428 11.1407,1.43409 14.2454,-8.72042 20.8388,3.22372 6.5935,11.94414 -17.0549,43.08962 -10.5078,55.67471 6.547,12.5851 3.9331,-3.89242 16.9998,-2.40958 13.0667,1.48283 15.2198,29.01888 4.603,29.87582 -10.6168,0.85694 -12.297,-10.33686 -18.788,1.18417 -6.491,11.52104 13.9627,41.3171 7.5377,54.2293 -6.4251,12.9122 -6.408,-4.96672 -19.1391,-3.3212 -12.7311,1.64552 -9.5495,32.10396 0.8918,32.51482 10.4413,0.41087 12.3145,-13.79464 17.2744,-3.39919 4.96,10.39546 1.8931,43.12079 -3.3126,56.97438 -5.2058,13.85358 -5.409,-2.92552 -18.034,-1.24572 -12.625,1.67981 -7.1551,31.83841 3.2596,32.11704 10.4148,0.27863 11.4582,-10.75707 17.6251,0.22654 6.1669,10.98362 5.028,40.67906 0.01,54.56034 -5.019,13.88128 -3.1172,-0.89425 -16.9991,-0.7381 -13.8818,0.15614 -10.5186,26.80748 0.506,28.15316 11.0246,1.34568 9.6714,-14.63227 16.2377,-2.8554 6.5662,11.77687 -12.6034,42.11827 -6.1714,55.01616 6.432,12.89789 6.0625,1.44662 18.7791,3.09727 12.7166,1.65065 10.16,25.10021 -0.5273,26.07189 -10.6873,0.97168 -12.3424,-12.44798 -18.9448,-0.39197 -6.6025,12.05602 -4.2551,42.93944 1.6019,56.51355 5.857,13.57412 0.2711,-0.12744 13.7008,1.05355 13.4296,1.18099 15.76,25.81877 4.3296,27.41627 -11.4305,1.5975 -17.1935,-10.11146 -22.6078,0.37238 -5.4144,10.48384 16.6729,40.15565 10.1685,52.87942 -6.5044,12.72376 -7.0632,-1.59725 -19.695,0.0806 -12.6318,1.67784 -11.9077,31.3966 -1.1839,32.42075 10.7238,1.02414 15.8515,-13.91219 22.4509,-1.90395 6.5995,12.00825 3.635,40.43397 -2.8817,53.1217 -6.5166,12.68773 -7.0024,-0.42835 -19.6388,1.24814 -12.6364,1.67648 -7.13,27.3591 4.0539,28.82238 11.184,1.46328 7.8754,-10.69797 14.1252,0.38699 6.2498,11.08496 -1.495,28.18858 -1.495,28.18858"
           id="XDiv2"
           style="fill:none;stroke:#0000ff;stroke-width:0.1;stroke-linecap:butt;stroke-linejoin:miter" />
        <path
           d="m 1184.6251,0 c 0,0 11.956,14.982722 5.7625,28.249537 -6.1934,13.266815 -5.0652,-2.663471 -18.0045,-1.108333 -12.9393,1.555138 -15.3226,27.198084 -4.4756,28.3741 10.847,1.176017 12.842,-8.24014 19.1124,2.872626 6.2704,11.112766 -10.6628,41.371806 -4.0993,53.88901 6.5635,12.5172 1.7478,-2.38782 14.0347,-0.6457 12.2869,1.74212 11.6932,26.69398 -0.091,28.40551 -11.7842,1.71154 -8.4032,-12.45111 -14.3509,-1.67618 -5.9477,10.77493 9.9705,43.07415 3.4761,55.82549 -6.4943,12.75134 -0.4297,0.098 -13.7717,1.36812 -13.342,1.2701 -10.9621,27.63102 0.059,28.97387 11.0212,1.34284 9.3212,-9.28085 14.6036,1.16424 5.2823,10.44509 -11.2967,36.51691 -6.3576,50.40382 4.9391,13.88691 3.7648,-0.64359 17.3172,0.38758 13.5524,1.03116 13.1096,28.22339 2.5253,29.01983 -10.5843,0.79644 -11.4679,-9.98911 -17.4065,0.77862 -5.9386,10.76772 -9.4299,41.13023 -4.1537,54.96791 5.2763,13.83768 7.7012,-2.30999 21.2835,-1.32119 13.5824,0.9888 9.031,32.29511 -1.7902,33.44206 -10.8212,1.14695 -13.0917,-11.70964 -19.2037,-0.78532 -6.1121,10.92431 16.9559,38.69753 11.3737,52.42855 -5.5822,13.73103 -7.9162,1.7953 -21.4465,2.85604 -13.5303,1.06074 -10.4333,27.82376 0.9027,29.37585 11.336,1.55209 9.7262,-12.97834 16.2862,-1.22966 6.56,11.74868 10.3058,39.61978 4.3633,53.13024 -5.9425,13.51045 -5.0771,-1.60788 -18.2479,-0.19539 -13.1707,1.4125 -13.8967,30.4288 -2.5621,31.98014 11.3346,1.55135 15.3272,-11.54803 20.509,-1.12507 5.1818,10.42295 6.3056,39.7781 0.3221,53.25496 -5.9836,13.47686 -4.5808,-1.31077 -18.3817,-0.76318 -13.8009,0.54758 -10.5776,29.61982 0.1047,30.58403 10.6823,0.9642 10.0724,-9.47541 16.4015,1.72333 6.329,11.19874 8.4457,39.94046 1.8741,52.419 -6.5715,12.47854 -5.6944,0.84292 -19.2835,1.82181 -13.5892,0.97889 -10.6048,24.3625 0.01,25.21287 10.6131,0.85036 12.7295,-9.14048 19.2342,2.41788 6.5046,11.55836 -13.2023,38.45541 -8.0676,52.32197 5.1347,13.86656 2.9049,-1.79665 16.213,-0.49542 13.3082,1.30124 13.646,31.14136 2.5255,32.56118 -11.1206,1.41981 -11.935,-11.87726 -17.9108,-1.07944 -5.9757,10.79782 1.3122,27.21473 1.3122,27.21473"
           id="XDiv3"
           style="fill:none;stroke:#0000ff;stroke-width:0.1;stroke-linecap:butt;stroke-linejoin:miter" />
        <path
           d="m 1093.5001,0 c 0,0 -12.2198,13.471852 -5.7862,26.366445 6.4335,12.894593 4.8458,1.860658 18.6232,2.475143 13.7773,0.614486 14.1419,28.242437 3.5749,29.004061 -10.567,0.761625 -12.5212,-12.764277 -17.8908,-2.294852 -5.3695,10.469425 -7.9477,44.926733 -1.4421,57.647073 6.5056,12.72033 5.4873,-6.16351 18.0742,-4.47316 12.5868,1.69035 9.4689,31.6312 -2.0007,33.24553 -11.4695,1.61433 -11.7802,-14.74043 -17.6636,-4.01451 -5.8834,10.72593 -2.516,43.28437 3.1887,56.9536 5.7046,13.66923 0.9084,1.52011 14.7719,1.81666 13.8635,0.29655 14.649,24.50657 3.2281,26.09979 -11.4209,1.59322 -13.8304,-7.40963 -19.3786,3.12548 -5.5481,10.53511 9.7645,39.47101 4.1362,53.18017 -5.6284,13.70916 -2.6965,-4.65096 -15.2184,-2.94479 -12.5218,1.70617 -12.5844,29.01875 -2.1415,29.43603 10.4429,0.41727 15.1863,-7.17985 21.1494,3.60754 5.9631,10.7874 -12.4851,37.70618 -6.9869,51.47296 5.4981,13.76678 0.786,-0.8521 14.4601,-0.0125 13.6741,0.83962 14.1095,26.53558 2.3381,28.24439 -11.7714,1.70881 -13.5576,-10.64229 -19.434,0.0786 -5.8763,10.72087 -2.5372,43.4921 3.0415,57.22471 5.5787,13.73261 -0.195,-1.19337 13.6926,-1.12724 13.8876,0.0661 12.6919,31.10916 1.9746,32.1243 -10.7173,1.01515 -10.7306,-11.18199 -16.3728,-0.60298 -5.6422,10.579 13.5808,39.57201 7.9912,53.29965 -5.5895,13.72765 -6.9976,-0.15632 -19.3516,1.57885 -12.3541,1.73517 -10.5875,24.36699 -0.058,25.04664 10.5299,0.67965 11.9302,-7.0324 18.225,4.11485 6.2949,11.14725 5.5521,37.01628 0.5857,50.90168 -4.9663,13.88541 -9.7126,-0.67623 -22.1614,1.04464 -12.4489,1.72086 -5.9307,28.78819 4.5745,29.40604 10.5052,0.61785 10.4614,-13.43245 17.0023,-1.75916 6.5409,11.67329 3.7117,45.53584 -2.812,58.20165 -6.5238,12.66581 -2.068,0.63334 -15.9562,0.68001 -13.8883,0.0467 -11.982,22.97421 -0.6159,24.5415 11.366,1.56729 9.7817,-7.99074 16.2526,3.47967 6.4709,11.47042 10.7888,40.09482 4.2478,52.70213 -6.5411,12.6073 -8.6569,-0.84762 -22.4852,-0.39112 -13.8282,0.4565 -10.2417,26.49956 1.163,28.08536 11.4047,1.58581 14.876,-9.67623 21.4308,2.05062 6.5549,11.72684 -5.9708,27.38456 -5.9708,27.38456"
           id="XDiv4"
           style="fill:none;stroke:#0000ff;stroke-width:0.1;stroke-linecap:butt;stroke-linejoin:miter" />
        <path
           d="m 1002.375,0 c 0,0 -7.85982,14.592409 -1.3134,27.179722 6.5465,12.587313 2.647,1.867211 16.4654,2.35838 13.8185,0.491169 13.2137,25.336272 1.7468,26.949499 -11.4669,1.613227 -12.6018,-10.692796 -18.2107,-0.130114 -5.60894,10.562683 -9.47365,41.802997 -4.40853,55.679353 5.06513,13.87635 5.90133,-3.4783 19.78403,-3.33118 13.8827,0.14713 12.9192,27.3804 0.9335,29.12178 -11.9857,1.74137 -11.2898,-8.40234 -16.3266,1.99939 -5.03681,10.40172 13.5309,43.84689 6.9312,56.11702 -6.5997,12.27012 -8.19098,-3.56051 -21.91166,-2.8123 -13.72067,0.74821 -7.98742,32.53136 2.44624,32.90904 10.43366,0.37769 11.80622,-10.37214 17.06202,0.0665 5.2559,10.43865 -12.93806,36.63922 -6.77754,49.944 6.16054,13.30479 3.62754,-0.12129 15.92794,1.61964 12.3005,1.74093 11.3892,31.65259 0.9881,31.82686 -10.4011,0.17427 -9.4916,-14.53214 -15.4561,-3.74364 -5.96446,10.78849 -9.82439,45.34528 -3.26418,57.87691 6.56018,12.53164 4.74018,-1.46673 18.06538,-0.18096 13.3252,1.28576 11.0802,29.41063 0.655,29.74774 -10.4252,0.3371 -8.7262,-11.8645 -15.0747,-0.63456 -6.34862,11.22994 11.1175,43.20997 4.5132,55.38201 -6.60418,12.17205 -5.86863,-2.19495 -19.50521,-1.29023 -13.63657,0.90471 -6.37595,27.48889 4.45955,28.65209 10.83546,1.1632 7.17081,-11.70484 13.58166,-0.36403 6.4108,11.3408 -13.40219,42.6025 -7.02557,55.60616 6.37667,13.00367 6.69737,-4.81614 19.78127,-3.34421 13.084,1.47193 8.7025,30.69235 -1.829,31.37573 -10.5315,0.68337 -12.0466,-11.7513 -17.96926,-0.99604 -5.92262,10.75526 -4.6765,43.94281 0.97128,57.64223 5.64778,13.69943 8.99478,-3.31982 21.62438,-1.64134 12.6296,1.67848 9.4355,30.34848 -0.985,30.66092 -10.4206,0.31244 -13.0296,-14.02187 -17.9282,-3.62898 -4.89872,10.39289 10.9348,40.5047 5.0151,54.03298 -5.91961,13.52828 -2.9999,4.10125 -16.85168,4.45945 -13.85179,0.35819 -10.32493,24.40803 1.51357,26.12998 11.83851,1.72195 11.18221,-11.94398 16.07871,-1.55114 4.8966,10.39284 6.1554,41.20672 0.044,54.56413 -6.1116,13.3574 -5.1183,4.01563 -18.91262,4.58277 -13.79433,0.56714 -7.83158,27.29679 2.67787,27.92577 10.50945,0.62899 12.86005,-11.96429 18.42615,-1.42132 5.566,10.54296 -5.9423,27.66 -5.9423,27.66"
           id="XDiv5"
           style="fill:none;stroke:#0000ff;stroke-width:0.1;stroke-linecap:butt;stroke-linejoin:miter" />
        <path
           d="m 911.25004,0 c 0,0 -12.47219,14.688142 -5.96928,27.41604 6.50291,12.727899 7.49329,-2.626379 21.35476,-2.318026 13.86147,0.308354 12.78399,28.264851 1.07512,29.958949 -11.70887,1.694097 -13.51359,-11.396229 -19.20717,-0.790288 -5.69358,10.60594 -9.27455,42.639151 -2.74989,55.302055 6.52467,12.6629 9.60898,-1.43135 22.10305,0.2808 12.49407,1.71215 6.84068,28.16667 -3.58988,28.53005 -10.43056,0.36338 -10.51836,-12.37325 -17.09364,-0.55093 -6.57528,11.82233 16.01395,42.67832 9.48674,55.33304 -6.5272,12.65473 -5.92339,-1.20821 -19.76431,-0.80157 -13.84093,0.40664 -13.45993,30.51463 -2.52258,31.78289 10.93734,1.26827 15.37049,-13.39265 21.51822,-2.43036 6.14772,10.96229 6.15489,41.35114 -0.12383,54.50811 -6.27872,13.15698 -5.45777,-0.72166 -19.25543,-0.16434 -13.79767,0.55731 -10.22315,28.38323 0.34036,29.13762 10.56351,0.75438 10.35932,-9.1217 15.89647,1.40872 5.53715,10.53043 10.54507,44.17047 4.0265,56.85246 -6.51856,12.682 -6.17304,-3.92226 -20.0483,-3.70452 -13.87526,0.21775 -11.18404,32.2501 0.133,33.7922 11.31704,1.54211 10.47798,-11.69165 16.01111,-1.16292 5.53313,10.52872 -12.97588,40.14217 -7.53348,53.92986 5.44239,13.78768 5.66091,1.49144 19.54599,1.60658 13.88508,0.11514 12.76107,27.57207 0.67984,29.31931 -12.08123,1.74724 -10.75235,-14.59951 -16.37495,-4.03022 -5.62259,10.56929 13.61123,43.71087 7.79235,57.31084 -5.81889,13.59998 -6.01884,-0.91827 -18.76677,0.72111 -12.74792,1.63938 -10.84274,24.79646 -0.35337,25.37067 10.48936,0.57421 11.54004,-10.69499 16.63452,-0.2863 5.09447,10.40868 -15.71927,44.38207 -9.20746,57.08437 6.51182,12.7023 9.56449,-1.60786 22.86097,-0.29624 13.29649,1.31163 7.20547,26.1023 -3.99156,27.57403 -11.19702,1.47173 -12.35358,-6.60168 -17.40776,3.80193 -5.05418,10.40362 14.92036,41.72167 8.52665,54.69453 -6.3937,12.97286 -3.43767,-0.97385 -17.23236,-0.40776 -13.79469,0.56609 -11.00508,27.62748 0.11641,29.04795 11.12149,1.42047 10.03399,-11.33527 16.61607,0.52623 6.58207,11.86151 6.91208,36.51356 1.33136,50.24526 -5.58072,13.7317 -3.38156,0.87295 -17.24595,1.16451 -13.86439,0.29157 -13.74817,25.93554 -1.69871,27.68141 12.04946,1.74587 10.81046,-10.30391 16.50038,0.30003 5.68991,10.60395 -2.41319,29.26194 -2.41319,29.26194"
           id="XDiv6"
           style="fill:none;stroke:#0000ff;stroke-width:0.1;stroke-linecap:butt;stroke-linejoin:miter" />
        <path
           d="m 820.12504,0 c 0,0 9.60085,12.834011 2.99762,25.04114 -6.60324,12.207129 -2.97248,-0.952495 -16.41683,0.212278 -13.44434,1.164773 -14.52988,29.853825 -3.4799,31.22016 11.04998,1.366335 16.40229,-11.45575 22.87139,0.01026 6.46909,11.466013 0.75953,39.652021 -4.44014,53.50683 -5.19968,13.85482 -4.27362,1.48203 -17.38525,2.93583 -13.11162,1.4538 -7.66429,24.95436 2.78903,25.41194 10.45332,0.45757 9.35977,-8.13439 15.96419,3.99004 6.60443,12.12443 8.46015,40.7306 2.32535,54.06357 -6.13481,13.33296 -3.68967,-1.376 -17.55212,-1.07316 -13.86245,0.30284 -15.32745,26.44485 -4.42413,27.67995 10.90332,1.23509 16.16846,-11.63814 21.70036,-1.10993 5.5319,10.52821 6.66503,43.38554 0.95543,57.052 -5.70959,13.66647 -8.95829,-1.15262 -22.79777,-0.73996 -13.83947,0.41266 -8.39039,25.5108 3.2954,27.19885 11.68578,1.68804 11.45359,-6.07952 16.4737,4.32055 5.02011,10.40007 7.35943,37.00966 0.99922,50.04162 -6.36021,13.03196 -2.88246,0.98601 -16.11354,2.3525 -13.23107,1.3665 -13.24975,30.8679 -2.77691,31.39219 10.47285,0.5243 13.02637,-15.24769 18.76481,-4.61641 5.73843,10.63128 7.7794,45.18964 1.60209,58.47533 -6.1773,13.2857 -4.34131,-3.77542 -17.92417,-2.78732 -13.58286,0.9881 -15.18693,30.04909 -4.01693,31.50314 11.17,1.45406 15.59502,-13.85152 20.78343,-3.4273 5.18842,10.42422 -12.52811,45.36663 -6.27338,58.55637 6.25472,13.18975 1.13404,-3.46151 14.34299,-2.07766 13.20895,1.38386 14.06527,30.15156 2.47576,31.81067 -11.58952,1.65912 -13.63353,-15.36438 -20.10355,-3.89617 -6.47001,11.46821 -4.687,44.46474 0.75192,58.25366 5.43893,13.78892 6.11812,-1.45737 18.85028,0.18776 12.73217,1.64513 8.90211,24.943 -1.57904,25.49302 -10.48115,0.55003 -11.83971,-11.51329 -18.42646,0.37885 -6.58676,11.89214 13.99042,42.15016 7.38732,54.36091 -6.60309,12.21075 -3.97802,-1.99324 -17.41643,-0.82186 -13.43841,1.17138 -8.7905,28.7797 1.6023,28.81844 10.39281,0.0388 10.81965,-6.44681 16.31421,4.06625 5.49456,10.51307 9.94644,39.31327 3.85032,52.68641 -6.09612,13.37315 -5.03884,1.2639 -18.86407,1.73135 -13.82522,0.46744 -10.72512,28.69058 -0.21135,29.33066 10.51376,0.64008 13.75005,-12.66808 19.04232,-2.22046 5.29228,10.44762 -5.93747,27.68772 -5.93747,27.68772"
           id="XDiv7"
           style="fill:none;stroke:#0000ff;stroke-width:0.1;stroke-linecap:butt;stroke-linejoin:miter" />
        <path
           d="m 729.00003,0 c 0,0 8.30276,12.235759 2.12037,25.515571 -6.18238,13.279811 -2.26406,0.688168 -14.45647,2.435651 -12.19241,1.747483 -13.13791,30.134196 -2.62785,30.764783 10.51006,0.630587 9.70348,-14.631273 16.30118,-2.644698 6.5977,11.986576 10.75881,41.456399 4.63333,54.799293 -6.12547,13.34289 -9.03461,-0.25487 -22.86937,0.17673 -13.83476,0.4316 -6.87127,26.9252 4.59971,28.54012 11.47097,1.61491 7.4271,-9.98349 13.99873,1.81972 6.57164,11.80322 9.30714,41.40748 3.49566,55.01231 -5.81148,13.60484 -8.11695,-1.30222 -20.74271,0.37737 -12.62576,1.67959 -11.62199,23.47577 -0.25447,25.04379 11.36753,1.56802 14.18655,-6.1488 19.51335,4.30809 5.3268,10.45689 8.40829,38.23255 2.0606,51.2853 -6.3477,13.05274 -9.40276,-0.95409 -22.61335,0.42849 -13.2106,1.38258 -9.2972,25.91742 1.85905,27.3622 11.15626,1.44479 13.94431,-7.48563 20.35524,3.8554 6.41093,11.34104 5.33477,38.03954 -1.17888,50.73642 -6.51364,12.69688 -8.73236,-0.34396 -20.9289,1.4034 -12.19653,1.74735 -9.19426,26.44865 1.73398,27.70821 10.92823,1.25956 11.46824,-6.72811 17.79057,4.46016 6.32233,11.18826 -13.49564,37.43577 -6.98022,50.12735 6.51541,12.69157 5.2822,3.10978 18.38873,4.56697 13.10653,1.45719 13.58218,25.74515 2.69815,26.96062 -10.88404,1.21546 -16.02477,-8.93148 -21.88531,1.77813 -5.86054,10.70962 14.36437,41.84455 8.02495,54.9107 -6.33942,13.06615 -3.46461,-1.45196 -16.71113,-0.0979 -13.24652,1.35402 -10.10979,24.16487 0.65234,25.2401 10.76213,1.07523 8.58804,-10.39948 14.68684,0.51132 6.09879,10.91081 6.19434,40.79199 0.21423,54.27176 -5.98012,13.47977 -1.54131,0.87434 -14.32948,2.49824 -12.78817,1.62391 -13.5406,29.5808 -2.98015,30.32875 10.56046,0.74795 14.80734,-13.8021 21.39196,-1.92438 6.58462,11.87773 -13.374,42.12767 -7.88656,55.89863 5.48745,13.77095 2.57646,-5.02575 16.01932,-3.85932 13.44287,1.16642 14.01067,28.32816 2.33457,30.01356 -11.67609,1.68541 -13.7085,-11.00222 -18.85803,-0.58507 -5.14953,10.41715 13.34174,42.36609 8.38363,56.25199 -4.95811,13.88591 -5.12006,1.93282 -19.00356,2.06983 -13.8835,0.137 -11.86933,24.48424 -1.38559,25.04203 10.48375,0.55778 10.05424,-10.70371 16.46746,0.64179 6.41321,11.34549 -2.03192,28.96665 -2.03192,28.96665"
           id="XDiv8"
           style="fill:none;stroke:#0000ff;stroke-width:0.1;stroke-linecap:butt;stroke-linejoin:miter" />
        <path
           d="m 637.87503,0 c 0,0 -7.56855,13.288468 -1.41325,26.599061 6.15531,13.310594 3.63317,-2.100267 17.2971,-1.242408 13.66393,0.857859 8.40382,32.231664 -2.27283,33.18726 -10.67665,0.955596 -9.15558,-14.606258 -15.39589,-3.53369 -6.24032,11.072569 14.31051,43.239353 7.71021,55.501167 -6.60029,12.26182 -5.8419,2.62637 -19.73017,2.67213 -13.88828,0.0458 -12.66781,27.90916 -1.92851,28.95446 10.7393,1.04531 11.34832,-12.02869 17.13782,-1.36638 5.78949,10.6623 -8.13389,38.99163 -2.9689,52.85303 5.16498,13.8614 5.38135,-1.27514 18.32939,0.27549 12.94804,1.55063 9.82628,30.8278 -0.90082,31.85655 -10.7271,1.02874 -11.1376,-12.29532 -17.71824,-0.4425 -6.58065,11.85282 -9.34606,39.89411 -4.02571,53.72026 5.32034,13.82615 7.44341,-4.53779 20.38396,-2.98328 12.94056,1.55451 12.02385,32.55276 1.43893,33.35036 -10.58493,0.7976 -16.50559,-11.40269 -21.73056,-0.97099 -5.22498,10.4317 17.76186,39.68289 11.1815,52.113 -6.58037,12.43012 -4.98799,-1.33347 -18.12631,0.10215 -13.13831,1.43562 -11.55331,30.37445 -0.008,32.01836 11.5457,1.64391 8.25302,-12.60394 14.09701,-1.90579 5.84399,10.69814 10.2004,41.42064 4.61264,55.14912 -5.58775,13.72847 -8.66914,0.42404 -22.09536,1.60878 -13.42623,1.18474 -6.85327,28.38402 3.55324,28.60592 10.40652,0.22191 7.43333,-13.43448 13.96202,-1.80308 6.5287,11.6314 -9.41343,40.77925 -3.09074,53.87168 6.32268,13.09244 2.73954,-2.34535 14.90248,-0.59724 12.16294,1.74811 12.71313,28.08904 2.15525,28.83154 -10.55789,0.7425 -13.59261,-10.46801 -18.46631,-0.0756 -4.87369,10.39246 14.95607,42.47782 8.47384,55.26078 -6.48222,12.78296 -6.4639,2.38887 -19.53635,3.86809 -13.07246,1.47921 -14.67742,25.60877 -2.6708,27.35187 12.00662,1.74311 12.21464,-10.58368 18.73856,1.03231 6.52393,11.61599 -10.43542,41.81045 -4.06569,54.82614 6.36974,13.0157 5.30948,-1.64953 18.42628,-0.19919 13.11679,1.45033 10.2425,23.63738 -1.21515,25.2467 -11.45765,1.60933 -13.90021,-10.45241 -19.42482,0.0728 -5.52462,10.52518 -4.27712,41.05108 1.60512,54.60723 5.88223,13.55616 2.84867,0.8965 15.06593,2.64307 12.21726,1.74657 10.62146,29.20354 0.1712,29.64968 -10.45026,0.44614 -10.59882,-14.4551 -16.9946,-3.14286 -6.39578,11.31224 4.53613,29.43402 4.53613,29.43402"
           id="XDiv9"
           style="fill:none;stroke:#0000ff;stroke-width:0.1;stroke-linecap:butt;stroke-linejoin:miter" />
        <path
           d="m 546.75003,0 c 0,0 11.2576,16.877766 4.68772,29.364616 -6.56987,12.48685 -8.6572,-3.893332 -21.57469,-2.327171 -12.91749,1.566162 -6.72879,27.475283 3.66359,27.477746 10.39237,0.0025 14.21532,-8.899222 19.16055,1.49542 4.94524,10.394641 -14.50023,38.849178 -9.17722,52.674589 5.32301,13.82542 5.16598,-0.49226 18.89665,0.23447 13.73067,0.72672 12.41397,31.27019 0.37291,33.0156 -12.04107,1.74542 -12.17542,-10.95595 -17.85278,-0.35874 -5.67737,10.5972 -9.69058,38.31367 -3.31285,51.31538 6.37773,13.00172 6.7137,-0.41884 20.60166,-0.36224 13.88796,0.0566 7.54847,32.08865 -2.89174,32.4948 -10.44021,0.40616 -11.88307,-12.37266 -18.45623,-0.56158 -6.57316,11.81108 16.37036,41.24943 11.51089,55.13831 -4.85947,13.88887 -8.19927,-2.80238 -22.07631,-2.59928 -13.87704,0.2031 -6.53907,31.24732 3.90508,31.66964 10.44415,0.42232 11.83441,-13.66916 18.40888,-1.85118 6.57447,11.81798 -17.81227,40.94101 -11.46094,53.98778 6.35134,13.04676 6.65941,1.74388 19.27253,3.42707 12.61312,1.68319 13.0194,27.56821 1.01154,29.31141 -12.00787,1.7432 -11.64624,-11.79733 -18.21676,3e-4 -6.57052,11.79762 -4.32193,40.20135 1.83937,53.50525 6.16131,13.30391 3.73102,-0.46892 16.84167,0.98553 13.11065,1.45445 12.05597,23.95889 1.0869,25.25652 -10.96907,1.29762 -11.24012,-8.99917 -17.72997,2.51878 -6.48985,11.51794 -7.18652,43.13455 -0.58609,55.39436 6.60043,12.2598 3.02708,-5.52359 15.8913,-3.93212 12.86423,1.59148 12.77856,32.43604 2.23806,33.14028 -10.54049,0.70424 -11.52738,-12.29758 -17.3734,-1.59804 -5.84602,10.69954 -10.30165,42.11828 -4.30736,55.58603 5.99429,13.46775 8.50271,-2.57988 22.33654,-2.14463 13.83383,0.43524 6.13312,29.08021 -4.25927,29.08751 -10.39239,0.007 -11.12067,-12.39316 -17.64908,-0.76269 -6.52841,11.63047 -6.7021,41.92208 -0.45985,55.12825 6.24224,13.20618 8.58973,1.50108 22.40766,1.99405 13.81793,0.49298 8.73911,28.78573 -3.01242,30.49013 -11.75152,1.7044 -10.91916,-15.82957 -17.32012,-4.50765 -6.40095,11.32193 -4.75918,45.44279 1.50113,58.62504 6.26032,13.18224 0.85919,-3.40835 14.41093,-2.37629 13.55173,1.03206 12.22376,26.32199 0.9499,27.84025 -11.27386,1.51826 -8.56736,-10.50084 -14.92274,0.74034 -6.35537,11.24118 1.64436,28.48218 1.64436,28.48218"
           id="XDiv10"
           style="fill:none;stroke:#0000ff;stroke-width:0.1;stroke-linecap:butt;stroke-linejoin:miter" />
        <path
           d="m 455.62502,0 c 0,0 9.2695,16.73031 2.75979,29.438778 -6.50972,12.708467 -5.73534,-1.76569 -18.4517,-0.114961 -12.71636,1.65073 -10.57098,23.988728 0.13287,24.984748 10.70385,0.99602 11.33819,-9.897607 17.24369,0.844644 5.9055,10.742252 -8.65464,40.240666 -3.73174,54.128271 4.92291,13.8876 4.75942,-1.92124 17.69712,-0.36527 12.9377,1.55597 9.83316,33.32226 -0.56598,33.47587 -10.39914,0.15361 -15.64543,-12.36569 -21.02597,-1.89285 -5.38054,10.47285 -4.86814,42.21385 0.75343,55.92631 5.62158,13.71245 6.4336,-4.23064 20.30839,-4.00919 13.8748,0.22144 7.98012,29.96106 -2.86701,31.13718 -10.84713,1.17612 -11.16801,-12.47987 -17.01891,-1.77697 -5.8509,10.7029 17.31743,44.59163 10.72075,56.89745 -6.59668,12.30582 -5.43703,-2.4423 -18.25542,-0.83077 -12.81838,1.61153 -15.19718,28.64244 -4.59088,29.48043 10.6063,0.83799 16.84101,-9.1615 22.50997,1.43127 5.66897,10.59276 -13.1396,39.54622 -6.97866,52.85053 6.16094,13.3043 0.0788,1.52623 13.95709,1.7188 13.87824,0.19257 11.22792,25.06764 0.51777,26.07267 -10.71014,1.00504 -8.13086,-8.77499 -14.64235,2.80301 -6.5115,11.578 9.73186,41.9869 4.72338,55.86913 -5.00849,13.88224 -4.32657,-5.3206 -18.06002,-4.6 -13.73346,0.72061 -9.2779,28.43911 2.14794,30.03456 11.42583,1.59545 12.95551,-10.55449 18.09611,-0.13883 5.1406,10.41565 1.03862,42.054 -4.06067,55.9259 -5.09929,13.8719 -4.5758,-3.14011 -17.43985,-1.54856 -12.86406,1.59155 -6.87657,29.56545 3.86882,30.61888 10.74539,1.05342 10.06555,-8.4922 16.28632,2.55552 6.22078,11.04771 -13.33531,41.30843 -7.09975,54.52324 6.23557,13.21481 1.4241,-2.50624 15.30443,-2.33356 13.88033,0.17268 13.68365,29.99925 2.36296,31.5433 -11.32069,1.54405 -10.72892,-15.3449 -16.96414,-4.2789 -6.23521,11.06599 -6.56346,45.50717 -0.23844,58.59601 6.32501,13.08884 7.18455,-3.07481 19.37367,-1.32723 12.18913,1.74758 6.00645,28.36429 -4.47373,28.91138 -10.48018,0.54708 -10.24341,-8.70032 -15.64877,1.78053 -5.40536,10.48085 10.57771,39.21897 4.72567,52.79653 -5.85204,13.57756 -4.61812,-1.26488 -18.27044,-0.38672 -13.65232,0.87815 -8.70596,25.72013 1.96956,26.67398 10.67551,0.95384 9.85724,-8.7703 16.46039,3.30178 6.60316,12.07207 -1.53569,26.28313 -1.53569,26.28313"
           id="XDiv11"
           style="fill:none;stroke:#0000ff;stroke-width:0.1;stroke-linecap:butt;stroke-linejoin:miter" />
        <path
           d="m 364.50002,0 c 0,0 6.89789,14.141326 1.39672,27.906899 -5.50117,13.765574 -5.50207,-2.593664 -18.27199,-0.962602 -12.76992,1.631062 -10.35067,27.925116 0.16169,28.561609 10.51236,0.636494 15.98674,-11.801562 22.58863,0.2436 6.60189,12.045161 -17.51244,41.344893 -11.83961,55.031344 5.67283,13.68645 9.67678,0.29735 21.9658,2.03929 12.28903,1.74194 9.5448,23.6704 -1.42382,24.96763 -10.96863,1.29722 -13.48142,-10.69683 -19.95094,0.7702 -6.46952,11.46702 13.19287,42.14002 6.86499,55.22441 -6.32788,13.08439 -4.07564,1.46597 -16.41081,3.20336 -12.33517,1.73739 -8.6669,27.33708 2.08142,28.39436 10.74831,1.05728 11.32508,-11.42842 17.88075,0.30192 6.55568,11.73033 1.45853,38.28176 -3.666,52.14993 -5.12453,13.86816 -5.95189,-2.05284 -18.1145,-0.30473 -12.1626,1.74811 -8.57174,26.5516 2.21777,27.66105 10.78952,1.10945 10.3113,-7.41282 15.99431,3.1874 5.683,10.60022 -9.38685,41.51295 -2.78668,53.77662 6.60016,12.26367 2.91912,-3.33489 16.48498,-2.32243 13.56586,1.01246 7.48384,31.13221 -2.93455,31.43271 -10.4184,0.3005 -7.10496,-12.06893 -13.60137,-0.5335 -6.4964,11.53542 -10.47366,42.10559 -4.53917,55.62236 5.93449,13.51677 5.1492,-2.50258 18.17968,-0.99774 13.03047,1.50484 15.34233,27.62268 4.49353,28.80062 -10.84879,1.17795 -17.03001,-11.36053 -21.97489,-0.96591 -4.94487,10.39463 -6.65353,42.32431 -0.0554,54.61419 6.59812,12.28988 7.38461,-1.09943 21.07521,-0.29075 13.69059,0.80868 7.92975,28.7445 -2.50972,29.14757 -10.43948,0.40307 -9.8772,-7.58707 -16.45282,4.2371 -6.57562,11.82418 -3.36154,37.58426 1.68584,51.46266 5.04738,13.8784 5.6312,-0.17901 18.26006,1.49968 12.62886,1.67869 9.1872,24.68281 -1.98961,26.14138 -11.1768,1.45857 -13.83085,-7.62707 -20.27167,3.77495 -6.44082,11.40203 -5.18842,43.02487 1.40041,55.39901 6.58884,12.37414 7.90905,-4.23841 20.9215,-2.72306 13.01245,1.51536 9.26087,27.41892 -1.13591,27.54294 -10.39678,0.12402 -15.25234,-10.32418 -20.86694,0.24123 -5.6146,10.56542 13.42773,45.15267 6.8631,57.66455 -6.56462,12.51188 -0.39042,-2.88922 -14.09657,-2.11107 -13.70615,0.77815 -12.86746,31.58563 -2.34136,32.25621 10.5261,0.67058 10.87895,-11.78872 16.25949,-1.31588 5.38054,10.47284 -1.54153,26.27091 -1.54153,26.27091"
           id="XDiv12"
           style="fill:none;stroke:#0000ff;stroke-width:0.1;stroke-linecap:butt;stroke-linejoin:miter" />
        <path
           d="m 273.37501,0 c 0,0 7.30354,12.403609 1.63668,26.093198 -5.66687,13.689589 -1.33795,0.912972 -14.26235,2.475687 -12.9244,1.562714 -10.80015,26.492189 0.38548,27.956554 11.18563,1.464365 11.17754,-13.417472 17.771,-1.472949 6.59347,11.944524 -16.1097,44.619056 -10.09549,58.06945 6.01421,13.4504 8.4739,-2.14268 20.67884,-0.39562 12.20494,1.74707 10.74064,27.99275 -0.37011,29.40545 -11.11075,1.41271 -15.00558,-10.25883 -20.20828,0.16822 -5.2027,10.42705 -7.91648,39.24544 -1.313,51.44578 6.60348,12.20033 4.41244,1.07816 18.16435,1.75648 13.75191,0.67833 14.30769,26.58272 3.90734,26.7495 -10.40035,0.16679 -13.46286,-7.05787 -19.57865,3.87035 -6.11579,10.92822 -3.28629,38.70268 1.95496,52.54864 5.24125,13.84595 2.53156,-3.93227 15.82663,-2.61939 13.29507,1.31287 12.81648,31.8734 1.05769,33.57944 -11.75878,1.70604 -10.67319,-15.4762 -17.2751,-3.43067 -6.60191,12.04553 -8.61344,40.12944 -3.18561,53.92224 5.42782,13.7928 8.51539,-0.41192 21.61954,1.04685 13.10414,1.45877 7.56724,26.78415 -3.42038,28.0983 -10.98763,1.31414 -9.88552,-7.58594 -14.76734,2.80662 -4.88182,10.39256 -8.74808,43.27404 -2.25787,56.03641 6.49021,12.76237 2.64747,-1.56703 16.42297,-0.94772 13.7755,0.61932 11.24468,25.23016 -0.27657,26.86501 -11.52125,1.63486 -12.025,-10.01048 -18.3663,1.20764 -6.3413,11.21813 -4.67731,41.39772 0.22337,55.28603 4.90068,13.88831 5.79205,-3.49778 18.07844,-1.75561 12.28639,1.74216 10.45816,30.0875 -8.6e-4,30.56558 -10.45901,0.47809 -7.46091,-13.12442 -13.89624,-1.73406 -6.43532,11.39036 8.69129,43.55563 3.78394,57.44375 -4.90734,13.88813 -2.30206,-5.18432 -15.48118,-3.77794 -13.17913,1.40638 -11.35377,27.7017 -0.5135,28.87023 10.84028,1.16853 8.55279,-9.42481 15.06886,2.16685 6.51608,11.59166 -10.78826,38.48184 -5.45795,52.30521 5.33032,13.82338 6.3423,-0.0773 20.1527,0.44058 13.8104,0.51792 9.77402,27.01242 -1.82176,28.67361 -11.59578,1.66118 -12.22231,-11.57107 -18.78114,0.17254 -6.55882,11.74362 14.44499,42.18253 7.84185,54.39212 -6.60314,12.20959 -5.88199,0.8494 -19.76269,1.01823 -13.88071,0.16883 -8.16682,27.53033 2.32656,28.11596 10.49338,0.58563 14.41434,-9.05483 20.02604,1.50919 5.61169,10.56402 -5.83487,28.07228 -5.83487,28.07228"
           id="XDiv13"
           style="fill:none;stroke:#0000ff;stroke-width:0.1;stroke-linecap:butt;stroke-linejoin:miter" />
        <path
           d="m 182.25001,0 c 0,0 -7.63495,11.934396 -1.9911,25.635812 5.64385,13.701417 0.70996,0.313416 14.24551,1.367256 13.53554,1.053839 14.1815,30.962361 3.76717,31.238551 -10.41433,0.276189 -14.53853,-10.227791 -20.30273,0.418848 -5.76421,10.646639 15.37367,41.126622 9.12176,54.320123 -6.2519,13.19349 -7.84426,-1.51185 -20.07714,0.23396 -12.23287,1.74582 -9.3872,26.22407 2.73968,27.97227 12.12689,1.7482 7.66426,-11.38713 13.96137,-0.23661 6.29711,11.15053 -9.76572,42.63521 -3.18228,55.04639 6.58344,12.41118 3.42967,-0.60498 16.22779,1.01491 12.79813,1.6199 10.41396,23.75114 -0.13976,24.48471 -10.55372,0.73357 -11.00389,-9.4546 -16.12286,0.95763 -5.11896,10.41223 -9.48395,40.8066 -3.27099,54.04982 6.21296,13.24322 6.85237,3.85193 20.7404,3.90626 13.88803,0.0543 9.39381,24.22969 -1.08699,24.77863 -10.48079,0.54894 -14.3397,-5.98166 -19.31512,4.41478 -4.97542,10.39644 16.09035,40.3645 10.17656,53.89724 -5.9138,13.53273 -4.03031,-2.6499 -17.83309,-2.10804 -13.80278,0.54186 -10.74993,28.10179 0.0116,29.1763 10.76157,1.07451 11.49523,-10.33262 18.09003,1.62413 6.59481,11.95674 -15.83728,37.86121 -10.8266,51.74326 5.01067,13.88204 9.62617,0.19249 21.96498,1.92947 12.33881,1.73698 11.30566,27.73326 -0.009,29.27408 -11.31464,1.54082 -11.62933,-12.06699 -18.20084,-0.26439 -6.57151,11.80259 8.80279,42.18827 2.9192,55.74345 -5.88358,13.55517 -0.4059,-0.24949 -14.24449,0.16681 -13.83859,0.41629 -10.72481,27.91336 0.0693,29.02841 10.79414,1.11506 8.79447,-13.19799 14.38393,-2.64443 5.58946,10.55355 -11.29377,40.56537 -5.0156,53.72311 6.27817,13.15774 3.08645,2.9964 16.47067,4.22516 13.38422,1.22876 11.1437,23.97906 -0.42632,25.63157 -11.57002,1.65251 -11.81508,-11.47484 -18.34533,0.16169 -6.53025,11.63652 -6.88763,43.73295 -0.40714,56.52026 6.4805,12.78731 5.45418,-2.59864 18.17985,-0.95119 12.72566,1.64746 14.51815,27.60998 4.07428,28.03117 -10.44387,0.4212 -11.06211,-10.72845 -17.6647,1.33047 -6.60259,12.05892 11.9683,44.40672 5.42964,57.02262 -6.53866,12.61589 -7.17443,-2.02738 -20.21495,-0.52853 -13.04053,1.49886 -8.10844,29.35415 2.29922,29.58479 10.40765,0.23064 9.87056,-12.11449 15.17841,-1.66278 5.30785,10.45171 -1.37441,26.74205 -1.37441,26.74205"
           id="XDiv14"
           style="fill:none;stroke:#0000ff;stroke-width:0.1;stroke-linecap:butt;stroke-linejoin:miter" />
        <path
           d="m 91.125005,0 c 0,0 12.278375,13.619762 5.766176,26.32092 -6.512204,12.701158 -8.764435,-2.884091 -21.270832,-1.174533 -12.506398,1.709558 -12.770278,29.295004 -1.362237,30.88236 11.408041,1.587355 13.947677,-12.225643 19.475295,-1.699218 5.527619,10.526425 -12.711897,44.4544 -7.854402,58.343271 4.857495,13.88888 4.244215,-0.46755 18.097285,-0.11552 13.85306,0.35203 14.40976,23.55105 2.27958,25.29926 -12.130172,1.74822 -10.891856,-7.32614 -16.715998,3.35861 -5.824141,10.68475 -9.371831,41.38346 -3.73223,55.08701 5.639601,13.70356 8.704359,-3.53334 22.108278,-2.32485 13.40392,1.2085 9.7324,30.61564 -1.33861,31.9985 -11.071005,1.38286 -15.050718,-13.73405 -21.399584,-2.50363 -6.348866,11.23041 -3.189835,44.76265 3.413759,56.95954 6.603595,12.1969 4.884035,-5.80601 17.842455,-4.26082 12.95842,1.54518 8.03777,31.35525 -2.77248,32.48949 -10.810257,1.13423 -10.044593,-13.65539 -15.168525,-3.2424 -5.123932,10.41299 9.7301,43.41784 3.977133,57.05923 -5.752966,13.64138 -4.748327,-0.097 -17.040436,1.6447 -12.292109,1.74167 -7.403862,28.16719 3.014028,28.46478 10.417889,0.29759 13.544533,-10.778 18.437266,-0.38525 4.892734,10.39276 -12.538254,39.95562 -7.072262,53.73472 5.465992,13.7791 1.276076,-0.89946 13.764896,0.81376 12.48882,1.71323 10.8571,26.00548 0.007,27.18473 -10.849993,1.17925 -10.905359,-8.15494 -17.222727,3.02573 -6.317367,11.18067 -6.806542,37.7594 -0.816687,51.23093 5.989856,13.47154 5.236353,-1.3345 19.024644,-0.75004 13.78828,0.58446 9.71469,31.94071 -0.77688,32.5212 -10.491563,0.5805 -8.93278,-14.38095 -15.133259,-3.3581 -6.200479,11.02285 -9.127585,44.54412 -3.06,57.94532 6.067584,13.4012 4.702331,-2.65219 17.775169,-1.17322 13.07284,1.47897 14.78415,25.09062 3.15132,26.76349 -11.632816,1.67288 -11.204609,-9.69869 -17.034446,0.98987 -5.829837,10.68855 13.824736,41.8785 7.424279,54.83876 -6.400459,12.96025 -4.260957,0.0727 -18.147278,0.16713 -13.886321,0.0945 -16.574168,28.18843 -4.539015,29.9335 12.035154,1.74506 14.61708,-13.73911 21.064877,-2.32192 6.447793,11.41719 7.792363,46.22242 1.188657,58.41577 -6.603705,12.19335 -4.209969,-3.41369 -17.710334,-2.31483 -13.500365,1.09885 -10.420556,29.16742 0.118253,29.86782 10.538808,0.7004 10.439912,-8.11068 15.685291,2.32556 5.245378,10.43623 -3.447539,24.95839 -3.447539,24.95839"
           id="XDiv15"
           style="fill:none;stroke:#0000ff;stroke-width:0.1;stroke-linecap:butt;stroke-linejoin:miter" />
      </g>
      <g
         id="g3009">
        <path
           d="m 0,83.700002 c 0,0 20.573357,-9.989456 33.319995,-3.49335 12.746638,6.496105 -2.865332,3.14145 -1.265297,15.986539 1.600034,12.845089 26.454155,14.953229 27.375208,4.298549 0.921053,-10.654678 -11.776041,-12.632118 -0.877296,-18.718861 10.898745,-6.086742 47.58169,-7.912973 61.41023,-2.601393 13.82854,5.311579 1.75429,8.080464 3.22273,21.169824 1.46843,13.08935 24.13628,9.06911 25.86881,-2.837593 1.73252,-11.906699 -9.87785,-9.829896 0.77433,-15.603167 10.65219,-5.77327 50.93723,12.425053 64.80705,7.311371 13.86982,-5.113681 -2.77592,-8.747945 -1.84364,-22.367499 0.93229,-13.619553 28.73574,-7.33193 30.44763,4.453984 1.71189,11.785914 -12.5346,12.91112 -2.12674,17.999572 10.40787,5.088452 52.69004,4.527611 65.58621,-1.905196 12.89616,-6.432807 -1.57945,-5.952611 -0.16186,-19.11638 1.41758,-13.16377 27.07058,-12.082945 28.57275,-0.836667 1.50218,11.246277 -12.12493,11.583436 -1.29957,17.591398 10.82535,6.007962 48.55425,6.403115 61.48694,-0.01166 12.93269,-6.414779 -0.16379,0.206369 0.45032,-13.5711 0.6141,-13.777469 26.38411,-13.06463 26.57804,-2.661465 0.19394,10.403166 -9.20153,10.193342 1.71703,16.29977 10.91857,6.106429 49.44522,-12.293182 63.32262,-7.237018 13.87741,5.056164 -4.6291,7.038711 -2.93949,19.628324 1.68962,12.589611 30.55584,14.624351 32.24488,2.934851 1.68904,-11.6895 -14.13614,-15.230573 -2.89358,-21.586775 11.24256,-6.356202 52.01242,12.803528 65.11764,6.489216 13.10521,-6.314312 -0.5658,-0.591398 0.21573,-14.295858 0.78154,-13.704461 26.41066,-11.18471 28.07564,0.422794 1.66498,11.607503 -14.28963,8.778455 -2.5659,15.332519 11.72372,6.554064 53.25876,-12.943367 66.57803,-6.795923 13.31927,6.147443 -1.04018,3.457916 -0.28298,17.174302 0.7572,13.716385 27.53032,9.250425 27.65389,-1.146325 0.12357,-10.396748 -10.6411,-13.190003 -0.23599,-18.256905 10.40511,-5.066902 46.21194,-4.721703 60.02363,0.64828 13.81169,5.369983 0.0451,8.133812 0.56863,21.942455 0.52355,13.80864 28.20379,6.84593 28.41043,-3.558698 0.20665,-10.404631 -11.83864,-9.097793 -0.25325,-15.611778 11.58538,-6.513985 53.03404,13.64845 66.07833,7.295617 13.0443,-6.352833 -1.27177,-3.48996 -0.85516,-17.32847 0.41662,-13.83851 28.53133,-14.218412 30.23224,-2.481853 1.70091,11.736558 -12.40474,15.929392 -1.99911,21.000541 10.40564,5.07115 51.37045,-16.075585 64.03523,-9.551511 12.66478,6.524075 -6.10135,5.090692 -4.66082,18.221899 1.44053,13.131203 30.64816,14.164713 32.39549,2.080833 1.74733,-12.083875 -13.43457,-15.978279 -2.74688,-21.806826 10.68769,-5.828548 52.18098,13.242982 66.04428,8.088584 13.8633,-5.154398 -5.1034,-2.722694 -4.2567,-16.392851 0.8467,-13.670156 29.8753,-9.903091 31.2552,1.164069 1.3798,11.06716 -9.791,7.84156 1.5852,14.270118 11.3763,6.428558 45.0541,7.759094 57.988,1.344963 12.934,-6.414132 0.7388,-2.75093 2.3312,-15.613047 1.5924,-12.862117 25.4341,-12.8336 27.1288,-1.122393 1.6947,11.711208 -10.3883,8.323686 1.1608,14.825071 11.5491,6.501385 50.914,10.94572 63.5139,4.402619 12.5998,-6.543101 -0.8507,-6.130639 0.8472,-18.687487 1.698,-12.556848 28.8199,-13.691273 29.4288,-3.189437 0.6089,10.501836 -14.2672,15.298752 -2.9592,21.692251 11.3081,6.3935 49.2657,5.926415 62.9688,0.285824 13.703,-5.64059 -3.1463,-6.094019 -1.9439,-19.503699 1.2025,-13.40968 28.1054,-10.691809 29.6968,0.724844 1.5913,11.416653 -11.7223,10.086965 -0.7882,16.208444 10.9342,6.121478 52.7791,6.162261 66.5795,0.757121 13.8005,-5.405139 -2.4862,-7.172672 -2.3289,-21.054456 0.1573,-13.881783 28.1388,-10.212153 28.279,0.185854 0.1402,10.398008 -11.3931,16.633304 -0.9875,21.704249 10.4056,5.070945 32.8949,-4.991003 32.8949,-4.991003"
           id="YDiv1"
           style="fill:none;stroke:#0000ff;stroke-width:0.1;stroke-linecap:butt;stroke-linejoin:miter" />
        <path
           d="m 0,167.4 c 0,0 19.913084,-9.31184 33.285221,-3.21471 13.372136,6.09712 -5.202094,6.8646 -3.602551,19.7108 1.599543,12.8462 30.782187,8.76896 32.498213,-3.03755 1.716027,-11.80651 -13.835203,-13.27967 -3.092914,-19.18522 10.742289,-5.90555 48.761761,-3.09307 61.171621,3.49058 12.40985,6.58364 1.8329,5.34676 2.82727,18.92531 0.99436,13.57855 25.25432,11.11503 26.8096,-0.22717 1.55528,-11.34221 -8.33417,-14.94192 3.25741,-21.45797 11.59158,-6.51605 50.01077,15.81785 62.346,9.22422 12.33524,-6.59364 -2.94839,-3.68999 -1.39423,-16.63123 1.55415,-12.94124 28.56342,-13.0077 30.30505,-1.01909 1.74163,11.98862 -11.88904,8.93872 -1.06944,14.94008 10.81961,6.00136 48.06832,5.75165 61.62578,-0.12878 13.55747,-5.88043 -2.9007,-0.45265 -1.85995,-13.99799 1.04075,-13.54534 28.94087,-10.30482 29.41534,0.15317 0.47446,10.45799 -7.31943,11.08983 3.23863,16.68895 10.55805,5.59912 48.17829,-13.35869 62.04093,-8.20073 13.86265,5.15796 -4.46843,8.13838 -2.80397,20.81375 1.66446,12.67537 30.11501,6.57268 31.07671,-4.10797 0.9617,-10.68066 -10.1531,-9.31801 0.51063,-15.10976 10.66373,-5.79174 47.95219,10.28795 60.4387,3.718 12.48651,-6.56994 0.0437,-0.37776 0.9458,-14.01592 0.90209,-13.63817 23.9988,-13.60636 25.50128,-2.35958 1.50247,11.24679 -10.11106,12.32074 0.3021,17.4458 10.41317,5.12507 51.6662,4.5494 65.54507,-0.49365 13.87886,-5.04305 -4.70388,-2.17147 -2.98611,-14.6371 1.71778,-12.46562 29.81527,-15.63193 31.49183,-3.98684 1.67655,11.64509 -13.68032,11.92191 -2.21604,18.39028 11.46428,6.46838 51.09379,8.97937 64.9043,3.60554 13.8105,-5.37383 -5.21783,-7.65865 -3.78063,-20.79468 1.4372,-13.13604 32.65682,-8.84341 33.45917,1.74395 0.80235,10.58737 -10.90168,13.38251 -0.38684,18.88157 10.51484,5.49905 48.20933,-13.06236 60.67697,-6.48872 12.46764,6.57364 1.12399,3.39709 1.4287,17.25921 0.3047,13.86212 24.83735,9.07622 24.89066,-1.31696 0.0533,-10.39319 -6.7195,-11.03404 4.50421,-17.3788 11.22371,-6.34475 46.38038,14.65233 59.9359,8.76923 13.55553,-5.88311 0.55791,-7.90993 2.20761,-20.62924 1.6497,-12.71931 27.54939,-11.45133 29.13523,-0.0466 1.58584,11.40477 -11.28277,11.07247 -0.25771,17.27479 11.02507,6.20232 47.14576,-15.09193 59.66025,-8.52787 12.51449,6.56405 1.42181,4.75803 1.61965,18.63567 0.19785,13.87765 28.47412,13.59444 30.09724,2.10331 1.62313,-11.49112 -12.41439,-10.15813 -1.53068,-16.22951 10.88371,-6.07138 48.61169,-6.34897 61.40569,0.12882 12.7941,6.47779 1.1976,1.97059 2.1048,15.60566 0.9072,13.63506 25.5673,14.06143 27.1838,2.5867 1.6164,-11.47472 -13.076,-12.541 -1.957,-18.81597 11.1191,-6.27497 51.9648,10.1772 65.5831,4.38665 13.6182,-5.79054 -1.3686,-2.11284 -0.1881,-15.54298 1.1805,-13.43013 28.204,-12.13995 29.6164,-1.02961 1.4124,11.11034 -11.739,10.10769 -0.2936,16.56801 11.4454,6.46032 48.807,-10.97729 61.7781,-4.58267 12.9712,6.39462 -2.009,5.17136 -1.775,19.04451 0.234,13.87314 26.6373,11.67926 28.3542,-0.1315 1.7168,-11.81076 -12.1907,-15.33855 -1.3604,-21.35222 10.8304,-6.01367 50.1292,13.04021 62.592,6.46565 12.4628,-6.57456 0.4911,-6.27568 2.22,-18.67628 1.7288,-12.40059 25.2155,-10.95938 26.8402,0.53556 1.6246,11.49494 -11.4485,13.76377 -0.7133,19.65973 10.7351,5.89596 52.4856,9.02892 65.0036,2.46565 12.5181,-6.56328 -3.9601,-9.29276 -2.3397,-22.08958 1.6204,-12.79682 33.0695,-8.3281 33.0742,2.06428 0,10.39238 -14.8386,13.38435 -4.1605,19.19841 10.6781,5.81407 32.8596,-5.03943 32.8596,-5.03943"
           id="YDiv2"
           style="fill:none;stroke:#0000ff;stroke-width:0.1;stroke-linecap:butt;stroke-linejoin:miter" />
        <path
           d="m 0,251.10001 c 0,0 18.407719,12.52472 30.975128,5.97311 12.567409,-6.55161 -2.531535,-7.54923 -2.150244,-21.39602 0.381291,-13.84679 32.798101,-9.50409 33.62478,1.09609 0.826679,10.60018 -15.397687,10.94536 -4.466541,17.06396 10.931147,6.11861 50.462297,9.53894 63.325297,3.09066 12.863,-6.44828 -1.13408,-4.96987 0.29018,-18.12433 1.42426,-13.15446 29.17682,-10.76359 30.23573,-0.014 1.05891,10.74955 -14.30258,10.81322 -2.40476,17.40078 11.89782,6.58756 48.61713,3.87141 61.71,-2.45099 13.09287,-6.3224 2.71097,-4.89559 4.43088,-17.34971 1.71991,-12.45412 23.96015,-10.36009 24.48001,0.11137 0.51986,10.47145 -10.56255,11.97286 0.0631,17.70165 10.62568,5.72879 49.87858,-12.24276 62.19857,-5.64749 12.31999,6.59528 0.69395,1.13511 1.3854,14.88143 0.69146,13.74633 28.06415,11.14426 29.55606,-0.085 1.4919,-11.22926 -9.40129,-11.98574 1.37586,-17.93621 10.77715,-5.95047 45.66052,-2.52735 59.07046,3.53107 13.40994,6.05843 0.32298,1.01541 0.33511,14.90424 0.0121,13.88884 29.4642,10.18373 30.44211,-0.50773 0.97791,-10.69147 -9.95138,-8.55929 0.44807,-13.57265 10.39945,-5.01337 47.32778,-10.52473 60.6869,-4.41483 13.35912,6.10991 2.29413,5.36582 3.0004,19.10569 0.70626,13.73987 23.67804,14.43845 25.3735,2.72419 1.69546,-11.71425 -11.20382,-10.96734 0.88501,-17.57108 12.08882,-6.60373 48.29178,12.33291 60.6232,5.73885 12.33141,-6.59405 -0.31225,-3.5253 0.91641,-16.90962 1.22866,-13.38432 28.01069,-10.96612 28.65453,-0.45087 0.64384,10.51525 -7.21439,12.93993 3.3342,18.51853 10.54859,5.5786 48.9435,2.60228 61.14003,-4.00132 12.19654,-6.60361 0.6896,-0.38038 0.90045,-14.2565 0.21085,-13.87611 23.61378,-12.90593 25.34315,-1.02154 1.72937,11.88439 -7.32322,11.0899 4.54856,17.6736 11.87178,6.58371 44.45306,6.39982 57.33447,-0.04 12.88142,-6.4398 1.98587,-7.24956 3.4163,-20.3953 1.43043,-13.14574 25.43532,-9.78414 26.12244,0.74892 0.68711,10.53306 -6.82908,12.58179 3.6367,17.93932 10.46578,5.35752 45.61705,4.98052 59.36582,-0.56149 13.74877,-5.542 0.0345,-4.78426 0.97975,-18.39554 0.94529,-13.61127 27.77043,-12.0853 29.51864,0.0427 1.7482,12.12804 -10.03406,15.79873 1.19722,22.14812 11.23128,6.34939 46.21002,2.92313 58.9997,-3.55642 12.78969,-6.47955 -1.09576,-4.10737 -0.40153,-17.8525 0.69424,-13.74512 31.36193,-11.08671 33.09436,0.81929 1.73244,11.90601 -10.78693,12.50813 0.0873,18.56961 10.87422,6.06148 45.25828,-15.12609 58.21968,-8.72625 12.9614,6.39985 -0.072,10.19965 1.6758,22.3445 1.7483,12.14485 29.7125,9.82878 30.8188,-0.95817 1.1063,-10.78694 -14.3854,-15.20516 -2.8172,-21.7133 11.5682,-6.50814 50.6847,-5.49046 64.317,0.27749 13.6324,5.76796 0.2163,5.20335 0.6815,19.02919 0.4652,13.82585 29.0991,12.12591 29.2824,1.72389 0.1833,-10.40201 -10.5098,-14.5774 -0.08,-19.79365 10.4298,-5.21625 47.4631,15.10254 61.331,9.97659 13.868,-5.12596 -0.8982,-6.84905 0.7794,-19.48142 1.6777,-12.63237 24.3711,-9.4968 25.1862,1.09724 0.8151,10.59405 -10.7688,10.43757 -0.3668,15.47673 10.402,5.03915 53.1242,-11.23498 65.8774,-4.74132 12.7532,6.49365 -2.9423,0.92786 -1.8766,14.45438 1.0657,13.52653 27.4499,11.43058 29.0461,0.003 1.5962,-11.42751 -8.753,-9.23578 2.4318,-15.55584 11.1848,-6.32005 46.595,-3.28675 60.4579,1.86985 13.8628,5.15661 -3.5761,5.34164 -1.921,18.04539 1.6551,12.70375 30.7495,10.49286 32.3848,-1.02948 1.6352,-11.52234 -11.8467,-11.08 -0.8867,-17.22564 10.96,-6.14563 29.7759,1.65468 29.7759,1.65468"
           id="YDiv3"
           style="fill:none;stroke:#0000ff;stroke-width:0.1;stroke-linecap:butt;stroke-linejoin:miter" />
        <path
           d="m 0,334.80001 c 0,0 18.618757,-7.23857 32.402417,-1.78498 13.783659,5.45359 -0.941261,1.80854 0.472635,14.9774 1.413895,13.16887 27.170269,14.60332 28.782924,3.13777 1.612654,-11.46555 -14.548843,-15.50042 -2.470424,-22.10381 12.078418,-6.60339 47.064758,15.05069 60.614348,9.15944 13.54958,-5.89125 -0.80226,-3.27097 0.73685,-16.24077 1.53911,-12.96979 27.71063,-11.14803 28.8223,-0.35669 1.11167,10.79134 -8.7144,12.69372 2.58255,19.08118 11.29696,6.38746 48.59976,5.68234 62.2296,-0.0897 13.62984,-5.77201 -3.82982,-9.70813 -2.15035,-22.33431 1.67947,-12.62617 28.02696,-9.64682 28.3644,0.77843 0.33743,10.42525 -7.81144,11.78216 2.66928,17.18715 10.48073,5.40499 48.96712,-9.32774 61.19362,-2.72535 12.2265,6.60239 0.5501,4.13857 1.68905,17.60554 1.13894,13.46697 23.68981,9.33349 25.25664,-2.03162 1.56683,-11.36511 -8.71784,-13.51421 3.11179,-20.09082 11.82962,-6.57662 46.45547,13.20471 60.07876,7.42213 13.62329,-5.78257 -0.24306,-4.27295 -0.0967,-18.15569 0.14632,-13.88274 26.94001,-9.73097 28.16482,1.16217 1.22481,10.89314 -8.73398,10.30653 2.76575,16.78932 11.49972,6.48278 49.38916,-11.43432 63.27067,-6.41778 13.88152,5.01654 -3.81014,4.12301 -2.4297,17.33637 1.38044,13.21337 26.20738,12.59926 27.93333,0.73696 1.72595,-11.86229 -11.11105,-10.20419 -0.45923,-15.97687 10.65182,-5.77268 48.09059,-6.25145 61.87988,-0.81358 13.7893,5.43786 4.17731,4.4854 4.65957,18.30644 0.48227,13.82104 28.13078,9.32319 28.79778,-1.20142 0.667,-10.52462 -11.48046,-9.41194 0.0721,-15.91456 11.55253,-6.50261 47.61645,-4.37925 61.49819,0.63476 13.88174,5.01401 -4.69008,1.96534 -3.03795,14.67766 1.65213,12.71233 30.22088,10.96055 31.69709,-0.24351 1.47622,-11.20406 -11.24208,-8.16002 0.77299,-14.76 12.01508,-6.59999 47.00154,14.69668 59.41831,8.11413 12.41676,-6.58256 0.8193,-8.93203 1.96832,-22.39028 1.14901,-13.45826 28.46639,-9.72055 30.19301,2.14589 1.72661,11.86644 -15.2228,10.30107 -4.13426,16.55356 11.08853,6.25249 48.64898,-11.40706 61.61224,-5.00819 12.96326,6.39886 2.57921,5.92152 4.29559,18.39447 1.71637,12.47295 24.34834,11.2345 25.29331,0.56473 0.94496,-10.66976 -7.94007,-11.67422 3.03304,-17.83174 10.97311,-6.15751 48.86092,9.70933 62.09182,3.48645 13.2309,-6.22288 -4.98048,-2.27293 -3.37702,-15.11019 1.60346,-12.83726 31.20216,-10.43253 32.55053,0.59532 1.34837,11.02785 -12.75946,9.22765 -2.36047,14.23582 10.39899,5.00818 51.66727,-11.68531 65.16597,-5.72814 13.4987,5.95717 -6.1183,6.17371 -4.5652,19.11701 1.5531,12.9433 31.962,8.05731 32.4763,-2.41242 0.5143,-10.46973 -13.3566,-8.48098 -2.6038,-14.40033 10.7527,-5.91936 50.1838,-6.22545 62.5235,0.36769 12.3396,6.59313 -2.8687,2.88595 -1.1412,15.29554 1.7274,12.40959 28.6699,9.88357 29.9317,-1.04702 1.2619,-10.9306 -9.3233,-7.96807 1.5321,-14.00944 10.8554,-6.04138 49.0448,12.80659 62.7217,7.1159 13.6769,-5.69068 -3.686,-5.4265 -2.8323,-19.09274 0.8538,-13.66623 32.0657,-12.11333 33.4116,-1.08846 1.346,11.02486 -16.1928,10.20274 -4.301,16.78944 11.8918,6.5867 51.5854,-10.06974 64.8939,-3.91251 13.3085,6.15723 -3.2157,1.53795 -1.4722,13.80618 1.7436,12.26824 31.602,11.72074 31.8092,1.31604 0.2072,-10.4047 -10.6288,-13.27391 -0.1856,-18.54846 10.4431,-5.27455 45.4186,12.77976 58.7442,6.6382 13.3257,-6.14156 0.4924,-5.8399 2.1805,-18.43504 1.6882,-12.59514 25.0554,-8.73724 25.9414,1.8963 0.8861,10.63355 -10.9746,13.10656 0.1803,19.40669 11.1549,6.30013 33.1297,-4.57569 33.1297,-4.57569"
           id="YDiv4"
           style="fill:none;stroke:#0000ff;stroke-width:0.1;stroke-linecap:butt;stroke-linejoin:miter" />
        <path
           d="m 0,418.50001 c 0,0 15.839804,9.05558 28.865382,2.6916 13.025579,-6.36397 2.929767,-3.81372 4.424825,-16.86054 1.495059,-13.04681 24.199005,-9.91344 25.872157,1.72029 1.673151,11.63373 -13.001147,10.71753 -1.014653,17.31522 11.986494,6.5977 52.303289,-13.01112 66.015499,-7.38904 13.71221,5.62208 -3.04752,1.7419 -1.56553,14.80995 1.48198,13.06804 26.12665,12.84723 26.33317,2.44261 0.20651,-10.40462 -9.34108,-14.25004 2.05351,-20.68737 11.3946,-6.43733 47.07671,16.71609 60.93125,11.51508 13.85455,-5.201 2.98582,-6.85036 3.60504,-20.6259 0.61921,-13.77554 26.60972,-12.38914 27.53461,-1.73208 0.92488,10.65706 -12.26258,12.36746 -1.52179,18.27101 10.74079,5.90354 46.87065,8.38707 60.5792,2.75752 13.70855,-5.62954 3.82444,-5.65159 4.50736,-19.40156 0.68292,-13.74997 26.53916,-12.10599 26.62285,-1.71161 0.0837,10.39438 -12.90253,13.22718 -1.81767,19.47689 11.08485,6.24971 51.84994,-14.60533 65.04194,-8.3523 13.192,6.25303 0.52458,5.87176 1.24277,19.60631 0.71818,13.73455 27.21494,13.53329 28.83115,2.05916 1.61622,-11.47412 -11.63666,-12.58893 0.39362,-19.18994 12.03029,-6.60102 45.15731,11.02348 58.51375,4.91098 13.35644,-6.1125 -0.59257,-4.42314 -0.003,-18.20945 0.59001,-13.78631 30.03512,-8.01775 31.76027,3.83964 1.72515,11.85739 -14.8345,8.76901 -3.45598,15.19865 11.37853,6.42965 49.49482,5.65486 62.58436,-0.6697 13.08954,-6.32457 1.44006,-0.38201 2.11874,-14.13377 0.67869,-13.75177 29.54961,-14.37464 30.02805,-3.91552 0.47844,10.45912 -13.11401,16.44074 -2.56057,22.02995 10.55344,5.58922 52.10098,4.17435 65.27877,-2.08926 13.1778,-6.2636 -2.17021,-2.0529 -2.02031,-15.93533 0.1499,-13.88244 26.73861,-13.86336 26.80491,-3.46973 0.0663,10.39364 -8.21132,16.22656 2.28847,21.68616 10.49979,5.45961 50.19196,2.563 63.99091,-2.84674 13.79894,-5.40974 -5.86627,-3.90253 -4.54926,-17.19288 1.317,-13.29036 32.18353,-9.29939 32.94927,1.26961 0.76574,10.56899 -14.56725,10.34102 -3.85055,16.21156 10.71669,5.87055 52.1104,-10.54246 65.97862,-5.41829 13.86823,5.12416 -3.10543,0.66611 -2.24277,14.32733 0.86266,13.66122 27.60858,15.01791 28.60479,4.31393 0.99621,-10.70398 -12.15573,-13.05692 -1.0343,-19.3336 11.12142,-6.27667 48.25684,-5.3535 62.03772,0.10769 13.78088,5.46119 -1.43972,4.69889 -0.10427,17.96777 1.33545,13.26887 31.33289,12.62771 33.05865,0.7666 1.72576,-11.86111 -13.59401,-16.5868 -3.19581,-21.58562 10.3982,-4.99883 49.89751,-2.82171 62.19631,3.77563 12.2987,6.59733 1.6847,0.0711 1.703,13.95992 0.018,13.88878 26.1936,12.59782 26.3622,2.19729 0.1686,-10.40052 -10.199,-14.06947 0.1991,-19.06693 10.3981,-4.99746 51.9796,11.80768 65.845,6.66591 13.8654,-5.14178 -1.3357,-4.93676 -0.1736,-18.3835 1.162,-13.44674 27.8549,-10.93059 28.2996,-0.4807 0.4447,10.44989 -14.05,11.87243 -1.9868,18.47521 12.0632,6.60279 47.5233,-12.03816 61.3221,-6.62809 13.7988,5.41007 0.4914,4.70297 2.2043,17.19319 1.7129,12.49021 30.4545,12.81822 31.1998,2.25903 0.7453,-10.55919 -13.4253,-14.51349 -2.6484,-20.46362 10.7769,-5.95013 47.4418,15.20814 60.1529,8.69936 12.7112,-6.50878 3.314,-2.34006 4.1034,-16.0406 0.7893,-13.70054 25.3248,-9.78995 26.1838,0.82805 0.8591,10.618 -11.6025,9.05567 -0.9485,14.83192 10.654,5.77626 51.1833,9.49585 64.6462,3.49597 13.463,-5.99988 -2.6754,-9.19518 -1.4954,-22.62577 1.18,-13.43058 29.8023,-7.58209 31.4454,3.96125 1.643,11.54334 -15.0999,11.06456 -3.5655,17.5606 11.5344,6.49605 33.0396,-4.7594 33.0396,-4.7594"
           id="YDiv5"
           style="fill:none;stroke:#0000ff;stroke-width:0.1;stroke-linecap:butt;stroke-linejoin:miter" />
        <path
           d="m 0,502.20001 c 0,0 14.843397,9.24619 28.707569,4.09709 13.864172,-5.14911 2.378418,-3.16517 3.479702,-16.66357 1.101284,-13.4984 29.523801,-13.82891 29.798204,-3.41486 0.274403,10.41404 -10.220722,13.25355 0.36379,18.9066 10.584512,5.65305 48.965895,6.10385 61.849735,-0.33481 12.88384,-6.43865 -3.92775,-6.51552 -2.38088,-19.47073 1.54688,-12.95521 30.17764,-9.30684 31.75828,2.08683 1.58065,11.39367 -13.22147,10.42302 -2.61203,16.12298 10.60945,5.69997 51.46885,-11.87289 64.54078,-5.5371 13.07193,6.33579 -4.78435,4.29846 -4.51103,18.16584 0.27332,13.86738 28.16779,10.81534 29.91108,-1.19362 1.74328,-12.00897 -7.66349,-9.79475 3.80268,-16.26391 11.46616,-6.46916 48.78621,-5.18952 61.46837,1.329 12.68215,6.51851 -3.63554,6.83905 -1.88955,19.06857 1.74598,12.22951 28.96418,7.91878 30.70958,-4.12216 1.74541,-12.04094 -12.70644,-7.58931 -0.98902,-14.14181 11.71743,-6.55251 48.80846,-5.94758 62.41474,-0.13832 13.60628,5.80926 -2.19428,4.41735 -1.75821,18.25096 0.43608,13.83362 30.4882,7.92696 31.99534,-3.32772 1.50715,-11.25468 -11.40402,-12.48434 -0.3667,-18.69672 11.03731,-6.21238 49.08853,13.73446 62.02182,7.31998 12.93328,-6.41447 -1.00007,-1.63132 0.10296,-15.12831 1.10303,-13.49698 23.57725,-13.95751 25.21202,-2.4365 1.63476,11.52102 -10.46858,14.70074 0.0803,20.2801 10.54893,5.57935 52.50686,7.38035 65.23995,0.8793 12.73309,-6.50105 -0.0881,-5.86282 0.97756,-19.38934 1.06569,-13.52651 27.49514,-9.01361 27.7025,1.3911 0.20735,10.40472 -14.22839,9.5894 -3.07643,15.8875 11.15196,6.29809 49.76981,4.42304 62.99458,-1.80471 13.22478,-6.22774 -0.90835,-1.06662 -0.56573,-14.92159 0.34263,-13.85497 29.02241,-13.93848 29.81007,-3.35861 0.78766,10.57986 -8.15324,12.58002 2.41663,18.2038 10.56987,5.62378 45.52802,-11.0152 58.54415,-4.64571 13.01613,6.36948 1.23434,5.87335 1.42306,19.75201 0.18873,13.87866 29.09311,11.47779 30.6999,0.0261 1.60679,-11.4517 -12.78317,-13.84245 -2.38941,-18.76819 10.39376,-4.92574 49.49557,-9.55336 63.21432,-3.94485 13.71876,5.6085 -1.11493,5.3377 0.48886,18.17422 1.60378,12.83651 29.94345,13.66508 31.39115,2.50453 1.4477,-11.16056 -11.32748,-10.92653 -0.57743,-16.84234 10.75005,-5.91581 48.97899,-6.44441 62.10475,-0.14389 13.12575,6.30052 -5.09635,5.58902 -3.50937,18.46304 1.58698,12.87403 27.8081,9.87063 28.64035,-0.73255 0.83226,-10.60318 -11.45096,-13.73398 0.0882,-20.23174 11.53913,-6.49777 47.8825,-4.4396 61.7325,0.78318 13.85,5.22278 3.1546,5.72486 4.6226,18.81491 1.468,13.09004 26.6852,9.58736 28.3569,-2.04132 1.6716,-11.62868 -12.442,-7.71196 -0.7662,-14.25352 11.6757,-6.54156 47.9898,8.2104 61.7964,2.82425 13.8067,-5.38615 0.053,-3.98509 1.2544,-17.39594 1.2012,-13.41084 27.8879,-10.54254 29.6357,1.55772 1.7478,12.10025 -13.3154,9.33927 -1.5277,15.90777 11.7876,6.5685 48.6775,6.47133 60.9417,-0.1288 12.2642,-6.60013 2.0185,-0.80915 2.2384,-14.68414 0.2199,-13.87499 28.0004,-13.49746 28.6686,-2.97236 0.6682,10.5251 -10.3047,15.25151 0.464,21.19139 10.7687,5.93988 45.1652,-15.09675 57.6685,-8.53028 12.5033,6.56647 0.7249,3.20353 2.3792,15.90951 1.6543,12.70598 28.8859,11.52515 30.336,0.36102 1.4501,-11.16412 -10.7643,-12.15651 0.065,-18.16851 10.8289,-6.01199 50.5178,16.99281 62.688,10.38856 12.1701,-6.60425 -2.989,-8.19548 -1.917,-21.71713 1.072,-13.52165 31.2604,-8.04072 31.3734,2.35531 0.1129,10.39602 -14.3849,9.73502 -3.231,16.03447 11.154,6.29946 31.8939,-1.49197 31.8939,-1.49197"
           id="YDiv6"
           style="fill:none;stroke:#0000ff;stroke-width:0.1;stroke-linecap:butt;stroke-linejoin:miter" />
        <path
           d="m 0,585.90001 c 0,0 21.024049,-9.93819 33.304994,-3.33933 12.280944,6.59886 -5.755705,7.01377 -4.037091,19.47493 1.718615,12.46116 32.05875,7.70826 32.80765,-2.85264 0.748901,-10.5609 -15.892448,-9.86793 -4.2175,-16.40927 11.674949,-6.54134 54.091017,-8.26192 66.292457,-1.65848 12.20143,6.60344 -5.23334,6.94978 -4.10257,20.42372 1.13077,13.47394 28.45493,10.22259 29.02116,-0.26401 0.56622,-10.48661 -10.77941,-10.25081 1.31666,-16.85475 12.09608,-6.60393 51.83763,10.33232 64.89387,3.98677 13.05624,-6.34556 -5.09709,-2.374 -4.06236,-15.92378 1.03473,-13.54978 33.45362,-11.82248 33.47835,-1.42993 0.0247,10.39255 -12.19987,13.16822 -0.35259,19.74794 11.84728,6.57971 48.3126,-12.99744 61.54963,-6.77946 13.23702,6.21797 -0.77592,0.40135 -0.65078,14.28574 0.12513,13.88439 26.02883,11.18235 27.52149,-0.0481 1.49267,-11.2305 -10.75325,-11.66427 1.29442,-18.2663 12.04766,-6.60203 50.72098,16.19851 63.74925,9.83612 13.02827,-6.36239 -6.0594,-5.89153 -4.59301,-18.98403 1.46639,-13.09251 29.55348,-8.02793 30.40594,2.58636 0.85246,10.61429 -10.74229,12.04712 0.45276,18.37383 11.19504,6.32672 48.87778,0.98268 62.61169,-4.59317 13.73391,-5.57584 -1.96347,-0.24355 -1.54874,-14.08252 0.41473,-13.83898 29.00071,-10.99623 30.63842,0.53259 1.6377,11.52882 -13.00842,8.53447 -2.02748,14.69897 10.98095,6.1645 50.05762,-14.47728 63.40759,-8.35855 13.34998,6.11874 -3.46688,7.89611 -1.72668,20.20433 1.7402,12.30822 32.81448,11.32232 33.75083,0.65805 0.93634,-10.66426 -14.9344,-14.16991 -3.3691,-20.67703 11.5653,-6.50712 50.94136,-6.00129 64.30792,0.10135 13.36656,6.10263 -3.0882,5.07673 -1.46165,17.85823 1.62655,12.7815 26.93892,16.42857 28.66744,4.54982 1.72853,-11.87874 -12.13718,-11.63159 -0.0724,-18.23444 12.06477,-6.60286 51.47193,12.24603 64.82423,6.12954 13.3523,-6.1165 -1.18814,-6.88896 -5.7e-4,-20.31257 1.18757,-13.42361 27.31553,-12.06292 29.04724,-0.16223 1.7317,11.9007 -13.15533,10.66047 -1.12074,17.26175 12.03459,6.60128 46.17242,9.82758 59.83301,4.10757 13.66059,-5.72001 1.23073,-9.43671 2.96855,-21.768 1.73782,-12.33129 25.0363,-10.2116 25.55559,0.25968 0.51929,10.47128 -10.78027,15.12028 0.866,21.65343 11.64626,6.53315 48.85538,-13.31263 62.20259,-7.19126 13.34722,6.12137 -2.27522,2.89782 -1.44772,16.57844 0.82751,13.68063 31.93891,8.12438 32.73779,-2.4612 0.79888,-10.58558 -14.1004,-10.56931 -3.63559,-15.92359 10.46481,-5.35428 48.95577,14.28153 62.35787,8.21481 13.402,-6.06672 -1.493,-5.29317 0.1609,-18.00013 1.654,-12.70697 31.3548,-12.78614 33.101,-0.7316 1.7461,12.05454 -13.6214,9.46152 -2.9736,15.22773 10.6479,5.76621 47.5043,-10.10965 60.7578,-3.9051 13.2535,6.20456 3.5848,3.89955 4.2541,17.65523 0.6693,13.75567 26.2569,8.57506 27.8128,-2.76822 1.5558,-11.34328 -9.8969,-9.10331 1.3261,-15.44763 11.223,-6.34432 44.4077,-7.16402 57.416,-0.79003 13.0083,6.37399 0.6374,7.56986 2.0804,20.69737 1.4431,13.1275 26.4115,7.04141 27.5868,-3.80498 1.1753,-10.8464 -11.6706,-11.01819 -0.4465,-17.36319 11.2241,-6.34499 52.6278,-4.66689 66.5167,0.19074 13.8889,4.85763 -2.4149,3.75289 -0.9082,16.78016 1.5067,13.02727 27.3995,10.32776 28.382,-0.36685 0.9826,-10.69462 -12.1665,-11.63201 -0.095,-18.23515 12.0716,-6.60314 49.8411,15.94105 63.6106,10.45006 13.7696,-5.491 -4.937,-7.79461 -3.5366,-20.98173 1.4005,-13.18712 32.6692,-8.91416 32.8201,1.48474 0.1509,10.3989 -12.5383,13.86442 -0.8324,20.41402 11.706,6.5496 29.5281,-5.45472 29.5281,-5.45472"
           id="YDiv7"
           style="fill:none;stroke:#0000ff;stroke-width:0.1;stroke-linecap:butt;stroke-linejoin:miter" />
        <path
           d="m 0,669.60001 c 0,0 18.737784,7.83355 31.634414,1.40096 12.89663,-6.43259 1.143998,-2.96002 1.535756,-16.80443 0.391758,-13.84442 24.010544,-12.53414 25.621406,-1.07285 1.610862,11.46129 -8.284083,14.3169 3.538522,20.89223 11.822605,6.57533 45.414432,5.09111 57.578072,-1.51324 12.16365,-6.60435 3.00909,-1.8612 3.64183,-15.63155 0.63275,-13.77036 23.7245,-13.59507 25.38159,-2.01161 1.65709,11.58346 -10.34565,12.20131 0.1311,17.59412 10.47675,5.3928 52.91922,6.98256 66.48856,1.11877 13.56935,-5.86379 -4.5954,-5.24681 -4.56148,-19.13536 0.0339,-13.88855 32.33339,-7.72835 32.45534,2.66829 0.12196,10.39663 -12.93569,11.95262 -1.42488,18.43973 11.51082,6.48712 50.94382,-15.95736 64.59279,-10.21722 13.64898,5.74014 -2.0136,7.24441 -1.65314,21.09572 0.36047,13.85131 28.78775,10.41778 29.63528,-0.19377 0.84754,-10.61156 -9.95111,-13.38362 1.15797,-19.65136 11.10909,-6.26774 45.06533,-8.53448 58.63676,-2.67366 13.57144,5.86082 -2.6466,6.71266 -1.1821,19.80808 1.46449,13.09542 29.8314,9.14965 31.16517,-1.86074 1.33377,-11.01039 -9.58289,-7.94914 1.05872,-13.70502 10.64162,-5.75589 49.92433,-7.84433 63.51082,-2.0053 13.58649,5.83904 -1.76452,6.25763 -1.1212,20.02383 0.64332,13.76621 24.92222,8.81558 25.62021,-1.72218 0.698,-10.53776 -6.35081,-11.4994 4.34382,-17.33824 10.69463,-5.83883 47.21843,15.01365 59.78329,8.4614 12.56486,-6.55225 0.12561,-6.3517 1.82771,-18.89138 1.7021,-12.53967 25.10414,-14.50116 26.28982,-3.64527 1.18567,10.85588 -9.84477,11.5346 2.26008,18.13873 12.10486,6.60414 49.30824,6.42165 61.51208,-0.18171 12.20383,-6.60336 -4.24054,-2.01994 -2.61251,-14.79766 1.62803,-12.77773 31.9173,-13.05003 33.3821,-1.86373 1.4648,11.1863 -11.93283,11.18587 -1.39666,16.73647 10.53618,5.5506 46.30713,-12.79029 59.19443,-6.35327 12.8873,6.43703 -1.59983,6.14751 -0.36204,19.52273 1.2378,13.37523 32.20238,11.58348 33.7855,0.18454 1.58313,-11.39895 -15.30935,-9.71136 -3.23361,-16.31465 12.07574,-6.6033 48.51023,-9.58552 62.37022,-4.41282 13.86,5.17271 1.09319,8.50062 2.76352,21.15735 1.67033,12.65673 28.41293,8.01157 28.4959,-2.38277 0.083,-10.39435 -12.96403,-8.36812 -2.22899,-14.26396 10.73505,-5.89583 50.29309,9.08943 63.58531,2.91781 13.29222,-6.17162 -4.3241,-2.72102 -3.28177,-16.26518 1.04233,-13.54416 27.94061,-11.77783 29.31182,-0.72172 1.37121,11.05612 -8.4214,15.21281 2.58754,21.4016 11.00895,6.1888 45.42523,3.23318 59.22103,-2.18603 13.7958,-5.4192 -0.8376,-4.10776 0.8958,-16.47584 1.7334,-12.36808 28.1089,-10.7329 29.245,0.0789 1.1361,10.81182 -7.0684,9.88257 3.551,15.60027 10.6193,5.71771 48.8177,-14.96283 61.2526,-8.38327 12.4349,6.57956 -4.4961,9.09321 -2.8719,21.88072 1.6242,12.78751 30.4269,11.21949 31.9236,-0.0177 1.4967,-11.23713 -10.1742,-14.52217 0.8362,-20.71217 11.0104,-6.19001 46.8003,-7.57436 60.3032,-1.62237 13.5029,5.95198 -4.3948,6.98828 -2.8032,19.8523 1.5915,12.86402 31.7484,9.58452 32.8447,-1.19431 1.0963,-10.77882 -9.7977,-10.38023 0.8584,-16.15977 10.656,-5.77954 48.3449,-8.97937 60.5854,-2.37773 12.2404,6.60165 -0.8775,5.25833 0.4863,18.49278 1.3638,13.23446 26.188,10.38259 26.3545,-0.0177 0.1666,-10.40033 -9.0339,-8.01103 2.9489,-14.60839 11.9829,-6.59737 45.9576,13.61498 58.6751,7.10841 12.7176,-6.50657 2.5408,-7.90888 2.96,-21.74676 0.4192,-13.83787 29.3838,-9.56863 30.0008,0.93624 0.617,10.50487 -11.2621,12.11939 0.1428,18.56157 11.405,6.44217 28.7708,-2.9409 28.7708,-2.9409"
           id="YDiv8"
           style="fill:none;stroke:#0000ff;stroke-width:0.1;stroke-linecap:butt;stroke-linejoin:miter" />
        <path
           d="m 0,753.30002 c 0,0 17.347375,11.35003 31.155184,5.96759 13.807809,-5.38245 -3.578993,-6.3977 -2.375048,-19.80596 1.203946,-13.40825 27.618445,-12.61641 29.113189,-1.38249 1.494745,11.23392 -10.188335,14.93456 0.22061,20.03094 10.408946,5.09639 53.928895,4.88623 66.272765,-1.70642 12.34386,-6.59265 -4.53689,-2.68984 -4.31915,-16.56511 0.21775,-13.87526 32.2712,-9.64314 32.56491,0.77408 0.29371,10.41723 -11.20593,13.04323 -0.68564,18.55591 10.5203,5.51269 45.51394,4.46159 59.24536,-1.11975 13.73142,-5.58134 1.47022,-3.28412 2.2404,-16.99421 0.77018,-13.71008 28.99543,-15.69684 30.72089,-3.83755 1.72547,11.8593 -11.09945,12.88841 0.53861,19.41912 11.63807,6.53071 47.73331,-11.28607 60.51021,-4.80146 12.7769,6.4846 -1.50399,4.8594 -0.35159,18.31469 1.1524,13.4553 27.48001,6.58579 28.94064,-4.59414 1.46063,-11.17992 -12.8541,-10.17056 -2.46136,-15.06236 10.39274,-4.8918 51.15562,-5.01069 63.91096,1.48218 12.75534,6.49286 -1.41278,4.99757 -0.0297,18.2075 1.3831,13.20993 29.04568,6.03149 29.91412,-4.59184 0.86844,-10.62333 -9.83196,-10.80985 1.46439,-17.19697 11.29635,-6.38713 49.4979,14.32474 62.2463,7.82929 12.7484,-6.49545 -5.49509,-2.9915 -4.26066,-16.37009 1.23443,-13.37859 32.58741,-11.10226 33.42618,-0.49553 0.83878,10.60673 -11.80371,11.67721 -0.0103,18.24688 11.79337,6.56967 47.89737,-14.22113 61.76853,-9.11664 13.87116,5.10449 -4.16678,6.48291 -4.12623,20.37131 0.0406,13.88841 27.29614,10.42606 28.91781,-1.06144 1.62166,-11.4875 -7.93161,-9.75707 3.05104,-15.92307 10.98264,-6.16601 45.69894,10.19593 59.12267,4.15224 13.42373,-6.0437 1.41215,-5.77822 1.85905,-19.60901 0.4469,-13.83079 30.72978,-7.04261 31.43073,3.49643 0.70094,10.53905 -14.34942,12.78859 -3.51474,18.80711 10.83468,6.01853 52.92465,-15.48243 65.82464,-9.05146 12.89998,6.43098 -1.79299,4.85261 -0.11375,17.47961 1.67923,12.62699 26.17164,14.51681 27.85284,2.85569 1.68121,-11.66112 -11.64262,-16.09931 -0.19773,-22.55941 11.44489,-6.46009 50.27975,-2.57253 62.74695,4.00119 12.4672,6.57373 -0.75852,3.62037 0.83605,16.47774 1.59457,12.85737 23.85976,12.71827 25.23128,1.66175 1.37153,-11.05651 -7.58292,-16.88063 2.81722,-21.90151 10.40015,-5.02088 49.16465,-2.71876 62.97466,2.65666 13.81001,5.37542 -3.83657,5.74699 -3.35469,19.56814 0.48188,13.82116 32.21285,8.08716 32.57503,-2.34315 0.36217,-10.4303 -15.44958,-12.7756 -4.35238,-19.03457 11.0972,-6.25898 47.81246,13.38775 61.69756,8.4167 13.8851,-4.97105 2.7879,-4.5583 4.449,-17.24398 1.6611,-12.68568 24.1893,-11.45258 24.6885,-0.9874 0.4993,10.46518 -9.6721,14.26026 1.0999,20.20435 10.7721,5.94408 47.7165,3.41538 61.018,-2.74808 13.3015,-6.16345 -1.3273,-3.53688 0.3971,-15.96548 1.7243,-12.4286 28.9293,-14.74804 30.2834,-3.71311 1.3542,11.03493 -9.637,12.22183 2.3237,18.81705 11.9607,6.59522 44.6473,-11.5719 57.999,-5.45475 13.3516,6.11715 -0.6608,6.75023 0.8308,19.80278 1.4915,13.05255 28.1008,7.77483 28.4644,-2.65578 0.3636,-10.4306 -9.2368,-13.01937 2.7089,-19.61298 11.9458,-6.59361 48.5011,18.40089 61.0915,11.85525 12.5904,-6.54565 -3.411,-6.80964 -1.8331,-19.70304 1.5779,-12.89339 31.2028,-8.88132 31.3634,1.51845 0.1606,10.39976 -12.994,9.76949 -2.3463,15.5354 10.6476,5.7659 50.9259,-11.48522 63.1913,-4.88518 12.2654,6.60004 -1.2116,5.19728 0.2345,18.32039 1.446,13.1231 30.374,8.7844 32.1113,-3.16127 1.7373,-11.94567 -12.3042,-14.51347 -1.904,-19.53558 10.4003,-5.02211 30.791,5.96435 30.791,5.96435"
           id="YDiv9"
           style="fill:none;stroke:#0000ff;stroke-width:0.1;stroke-linecap:butt;stroke-linejoin:miter" />
      </g>
      <path
         d="m 0,0 1458.0001,0 0,837.00002 L 0,837.00002 0,0"
         id="path3020"
         style="fill:none;stroke:#0000ff;stroke-width:0.1;stroke-linecap:butt;stroke-linejoin:miter" />
    </g>
  </g>
</svg>
