solid OpenSCAD_Model
  facet normal -0.99863 -0.052336 0
    outer loop
      vertex -63.0822 38.8931 0
      vertex -62.9446 36.2681 0
      vertex -63.0822 38.8931 15
    endloop
  endfacet
  facet normal -0.99863 -0.052336 0
    outer loop
      vertex -63.0822 38.8931 15
      vertex -62.9446 36.2681 0
      vertex -62.9446 36.2681 7
    endloop
  endfacet
  facet normal -0.99863 -0.052336 0
    outer loop
      vertex -63.0822 38.8931 15
      vertex -62.9446 36.2681 7
      vertex -62.8779 34.9947 7
    endloop
  endfacet
  facet normal -0.99863 -0.052336 0
    outer loop
      vertex -62.8779 34.9947 7
      vertex -62.8779 34.9947 0
      vertex -59 -39 0
    endloop
  endfacet
  facet normal -0.99863 -0.052336 0
    outer loop
      vertex -62.8779 34.9947 7
      vertex -59 -39 0
      vertex -63.0822 38.8931 15
    endloop
  endfacet
  facet normal -0.99863 -0.052336 0
    outer loop
      vertex -63.0822 38.8931 15
      vertex -59 -39 0
      vertex -59 -39 15
    endloop
  endfacet
  facet normal 0 0 -1
    outer loop
      vertex -63.0822 38.8931 0
      vertex -62.9607 38.8995 0
      vertex -62.9446 36.2681 0
    endloop
  endfacet
  facet normal 0 0 -1
    outer loop
      vertex -62.9446 36.2681 0
      vertex -62.9607 38.8995 0
      vertex -62.9128 39.9962 0
    endloop
  endfacet
  facet normal 0 0 -1
    outer loop
      vertex -62.9128 39.9962 0
      vertex -63 40 0
      vertex -62.9564 40.999 0
    endloop
  endfacet
  facet normal 0 0 -1
    outer loop
      vertex -62.9128 39.9962 0
      vertex -62.9564 40.999 0
      vertex -62.8692 40.9952 0
    endloop
  endfacet
  facet normal 0 0 -1
    outer loop
      vertex -62.9128 39.9962 0
      vertex -62.8692 40.9952 0
      vertex -62.9446 36.2681 0
    endloop
  endfacet
  facet normal 0 0 -1
    outer loop
      vertex -62.8692 40.9952 0
      vertex -62.8691 40.9971 0
      vertex -62.9446 36.2681 0
    endloop
  endfacet
  facet normal 0 0 -1
    outer loop
      vertex -62.9446 36.2681 0
      vertex -62.8691 40.9971 0
      vertex 60.0138 35.632 0
    endloop
  endfacet
  facet normal 0 0 -1
    outer loop
      vertex -62.9446 36.2681 0
      vertex 60.0138 35.632 0
      vertex 59.9965 35.2356 0
    endloop
  endfacet
  facet normal 0 0 -1
    outer loop
      vertex -62.9446 36.2681 0
      vertex 59.9965 35.2356 0
      vertex 60.4909 35.1749 0
    endloop
  endfacet
  facet normal 0 0 -1
    outer loop
      vertex -62.9446 36.2681 0
      vertex 60.4909 35.1749 0
      vertex 60.4463 34.812 0
    endloop
  endfacet
  facet normal 0 0 -1
    outer loop
      vertex -62.9446 36.2681 0
      vertex 60.4463 34.812 0
      vertex 60.4685 34.8093 0
    endloop
  endfacet
  facet normal 0 0 -1
    outer loop
      vertex -62.9446 36.2681 0
      vertex 60.4685 34.8093 0
      vertex 59.9104 30.2634 0
    endloop
  endfacet
  facet normal 0 0 -1
    outer loop
      vertex -62.9446 36.2681 0
      vertex 59.9104 30.2634 0
      vertex 59.8829 29.6348 0
    endloop
  endfacet
  facet normal 0 0 -1
    outer loop
      vertex -62.9446 36.2681 0
      vertex 59.8829 29.6348 0
      vertex 59.8335 29.637 0
    endloop
  endfacet
  facet normal 0 0 -1
    outer loop
      vertex 46.9163 -34.5371 0
      vertex 59.8335 29.637 0
      vertex 50.9627 -42.6093 0
    endloop
  endfacet
  facet normal 0 0 -1
    outer loop
      vertex 46.9163 -34.5371 0
      vertex 50.8492 -44.757 0
      vertex -56.5139 -29.1166 0
    endloop
  endfacet
  facet normal 0 0 -1
    outer loop
      vertex -56.5139 -29.1166 0
      vertex 50.8492 -44.757 0
      vertex -59 -39 0
    endloop
  endfacet
  facet normal 0 0 -1
    outer loop
      vertex 46.9163 -34.5371 0
      vertex 50.9618 -42.6092 0
      vertex 50.8492 -44.757 0
    endloop
  endfacet
  facet normal 0 0 -1
    outer loop
      vertex -62.8779 34.9947 0
      vertex -63 35 0
      vertex -62.9446 36.2681 0
    endloop
  endfacet
  facet normal 0 0 -1
    outer loop
      vertex -62.9446 36.2681 0
      vertex 54.8228 29.8557 0
      vertex -59.8669 34.8632 0
    endloop
  endfacet
  facet normal 0 0 -1
    outer loop
      vertex 46.9163 -34.5371 0
      vertex 50.9627 -42.6093 0
      vertex 50.9618 -42.6092 0
    endloop
  endfacet
  facet normal 0 0 -1
    outer loop
      vertex -62.8779 34.9947 0
      vertex -56.5139 -29.1166 0
      vertex -59 -39 0
    endloop
  endfacet
  facet normal 0 0 -1
    outer loop
      vertex 54.8228 29.8557 0
      vertex 59.8335 29.637 0
      vertex 46.9163 -34.5371 0
    endloop
  endfacet
  facet normal 0 0 -1
    outer loop
      vertex -62.9446 36.2681 0
      vertex 59.8335 29.637 0
      vertex 54.8228 29.8557 0
    endloop
  endfacet
  facet normal 0 0 -1
    outer loop
      vertex -56.5139 -29.1166 0
      vertex -62.8779 34.9947 0
      vertex -62.9446 36.2681 0
    endloop
  endfacet
  facet normal 0 0 -1
    outer loop
      vertex -56.5139 -29.1166 0
      vertex -62.9446 36.2681 0
      vertex -59.8669 34.8632 0
    endloop
  endfacet
  facet normal -0.052336 0.99863 0
    outer loop
      vertex -63.0822 38.8931 0
      vertex -63.0822 38.8931 15
      vertex -62.9607 38.8995 0
    endloop
  endfacet
  facet normal -0.052336 0.99863 0
    outer loop
      vertex -62.9607 38.8995 10
      vertex -63.0822 38.8931 15
      vertex -62.0836 38.9454 15
    endloop
  endfacet
  facet normal -0.052336 0.99863 0
    outer loop
      vertex -62.9607 38.8995 0
      vertex -63.0822 38.8931 15
      vertex -62.9607 38.8995 10
    endloop
  endfacet
  facet normal -0.052336 0.99863 0
    outer loop
      vertex -62.9607 38.8995 10
      vertex -62.0836 38.9454 15
      vertex -62.0836 38.9454 10
    endloop
  endfacet
  facet normal 0 0 1
    outer loop
      vertex -62.0836 38.9454 15
      vertex -63.0822 38.8931 15
      vertex -59 -39 15
    endloop
  endfacet
  facet normal 0 0 1
    outer loop
      vertex -58.4993 -29.4463 15
      vertex -62.0836 38.9454 15
      vertex -59 -39 15
    endloop
  endfacet
  facet normal -0.99863 0.052336 0
    outer loop
      vertex -59 -39 15
      vertex -59 -39 19
      vertex -58.4993 -29.4463 15
    endloop
  endfacet
  facet normal -0.99863 0.052336 0
    outer loop
      vertex -58.4993 -29.4463 15
      vertex -59 -39 19
      vertex -58.4766 -29.0137 19
    endloop
  endfacet
  facet normal -0.99863 0.052336 0
    outer loop
      vertex -58.4993 -29.4463 15
      vertex -58.4766 -29.0137 19
      vertex -58.4766 -29.0137 10
    endloop
  endfacet
  facet normal -0.99863 0.052336 0
    outer loop
      vertex -58.4993 -29.4463 15
      vertex -58.4766 -29.0137 10
      vertex -58.4993 -29.4463 10
    endloop
  endfacet
  facet normal -0.052336 -0.99863 0
    outer loop
      vertex -59 -39 15
      vertex -59 -39 0
      vertex 50.8492 -44.757 0
    endloop
  endfacet
  facet normal -0.052336 -0.99863 0
    outer loop
      vertex -59 -39 19
      vertex -59 -39 15
      vertex 50.8492 -44.757 19
    endloop
  endfacet
  facet normal -0.052336 -0.99863 0
    outer loop
      vertex 50.8492 -44.757 19
      vertex -59 -39 15
      vertex 50.8492 -44.757 0
    endloop
  endfacet
  facet normal -0.0436194 -0.999048 0
    outer loop
      vertex -63 35 7
      vertex -63 35 0
      vertex -62.8779 34.9947 0
    endloop
  endfacet
  facet normal -0.0436194 -0.999048 0
    outer loop
      vertex -62.8779 34.9947 7
      vertex -63 35 7
      vertex -62.8779 34.9947 0
    endloop
  endfacet
  facet normal 0 0 1
    outer loop
      vertex -62.9446 36.2681 7
      vertex -63 35 7
      vertex -62.8779 34.9947 7
    endloop
  endfacet
  facet normal -0.999048 0.0436194 0
    outer loop
      vertex -63 35 0
      vertex -63 35 7
      vertex -62.9446 36.2681 0
    endloop
  endfacet
  facet normal -0.999048 0.0436194 0
    outer loop
      vertex -62.9446 36.2681 0
      vertex -63 35 7
      vertex -62.9446 36.2681 7
    endloop
  endfacet
  facet normal 0.99863 -0.052336 0
    outer loop
      vertex 50.8492 -44.757 19
      vertex 50.8492 -44.757 0
      vertex 50.9618 -42.6092 0
    endloop
  endfacet
  facet normal 0.99863 -0.052336 0
    outer loop
      vertex 50.981 -42.2432 10
      vertex 50.8492 -44.757 19
      vertex 50.9618 -42.6092 10
    endloop
  endfacet
  facet normal 0.99863 -0.052336 0
    outer loop
      vertex 50.9618 -42.6092 10
      vertex 50.8492 -44.757 19
      vertex 50.9618 -42.6092 0
    endloop
  endfacet
  facet normal 0.99863 -0.052336 0
    outer loop
      vertex 50.981 -42.2432 17
      vertex 50.8492 -44.757 19
      vertex 50.981 -42.2432 10
    endloop
  endfacet
  facet normal 0.99863 -0.052336 0
    outer loop
      vertex 51.3726 -34.7707 17
      vertex 50.8492 -44.757 19
      vertex 50.981 -42.2432 17
    endloop
  endfacet
  facet normal 0.99863 -0.052336 0
    outer loop
      vertex 51.3726 -34.7707 19
      vertex 50.8492 -44.757 19
      vertex 51.3726 -34.7707 17
    endloop
  endfacet
  facet normal -0.121869 -0.992546 0
    outer loop
      vertex 50.9618 -42.6092 10
      vertex 50.9618 -42.6092 0
      vertex 50.9627 -42.6093 0
    endloop
  endfacet
  facet normal -0.121869 -0.992546 0
    outer loop
      vertex 50.9627 -42.6093 10
      vertex 50.9618 -42.6092 10
      vertex 50.9627 -42.6093 0
    endloop
  endfacet
  facet normal 0.992546 -0.121869 0
    outer loop
      vertex 50.9627 -42.6093 10
      vertex 50.9627 -42.6093 0
      vertex 59.8335 29.637 0
    endloop
  endfacet
  facet normal 0.992546 -0.121869 0
    outer loop
      vertex 59.9104 30.2634 7
      vertex 50.9627 -42.6093 10
      vertex 59.8335 29.637 7
    endloop
  endfacet
  facet normal 0.992546 -0.121869 0
    outer loop
      vertex 59.8335 29.637 7
      vertex 50.9627 -42.6093 10
      vertex 59.8335 29.637 0
    endloop
  endfacet
  facet normal 0.992546 -0.121869 0
    outer loop
      vertex 60.4685 34.8093 10
      vertex 50.9627 -42.6093 10
      vertex 59.9104 30.2634 7
    endloop
  endfacet
  facet normal 0.992546 -0.121869 0
    outer loop
      vertex 60.4685 34.8093 0
      vertex 59.9104 30.2634 7
      vertex 59.9104 30.2634 0
    endloop
  endfacet
  facet normal 0.992546 -0.121869 0
    outer loop
      vertex 60.4685 34.8093 10
      vertex 59.9104 30.2634 7
      vertex 60.4685 34.8093 0
    endloop
  endfacet
  facet normal -0.0436194 -0.999048 0
    outer loop
      vertex 59.8335 29.637 7
      vertex 59.8335 29.637 0
      vertex 59.8829 29.6348 0
    endloop
  endfacet
  facet normal -0.0436194 -0.999048 0
    outer loop
      vertex 59.8829 29.6348 7
      vertex 59.8335 29.637 7
      vertex 59.8829 29.6348 0
    endloop
  endfacet
  facet normal 0.999048 -0.0436194 0
    outer loop
      vertex 59.8829 29.6348 7
      vertex 59.8829 29.6348 0
      vertex 59.9104 30.2634 0
    endloop
  endfacet
  facet normal 0.999048 -0.0436194 0
    outer loop
      vertex 59.9104 30.2634 7
      vertex 59.8829 29.6348 7
      vertex 59.9104 30.2634 0
    endloop
  endfacet
  facet normal 0.121869 0.992546 0
    outer loop
      vertex 60.4463 34.812 0
      vertex 60.4463 34.812 10
      vertex 60.4685 34.8093 0
    endloop
  endfacet
  facet normal 0.121869 0.992546 0
    outer loop
      vertex 60.4685 34.8093 0
      vertex 60.4463 34.812 10
      vertex 60.4685 34.8093 10
    endloop
  endfacet
  facet normal 0.992546 -0.121869 0
    outer loop
      vertex 50.9851 -42.2437 17
      vertex 50.9851 -42.2437 10
      vertex 60.4463 34.812 10
    endloop
  endfacet
  facet normal 0.992546 -0.121869 0
    outer loop
      vertex 60.4909 35.1749 17
      vertex 50.9851 -42.2437 17
      vertex 60.4463 34.812 10
    endloop
  endfacet
  facet normal 0.992546 -0.121869 0
    outer loop
      vertex 60.4463 34.812 0
      vertex 60.4909 35.1749 0
      vertex 60.4463 34.812 10
    endloop
  endfacet
  facet normal 0.992546 -0.121869 0
    outer loop
      vertex 60.4909 35.1749 0
      vertex 60.4909 35.1749 17
      vertex 60.4463 34.812 10
    endloop
  endfacet
  facet normal 0.121869 0.992546 0
    outer loop
      vertex 59.9096 35.2462 10
      vertex 59.9096 35.2462 17
      vertex 59.9965 35.2356 10
    endloop
  endfacet
  facet normal 0.121869 0.992546 0
    outer loop
      vertex 59.9965 35.2356 10
      vertex 59.9096 35.2462 17
      vertex 60.4909 35.1749 17
    endloop
  endfacet
  facet normal 0.121869 0.992546 0
    outer loop
      vertex 59.9965 35.2356 10
      vertex 60.4909 35.1749 17
      vertex 60.4909 35.1749 0
    endloop
  endfacet
  facet normal 0.121869 0.992546 0
    outer loop
      vertex 59.9965 35.2356 10
      vertex 60.4909 35.1749 0
      vertex 59.9965 35.2356 0
    endloop
  endfacet
  facet normal 0.999048 -0.0436194 0
    outer loop
      vertex 59.9965 35.2356 10
      vertex 59.9965 35.2356 0
      vertex 60.0138 35.632 0
    endloop
  endfacet
  facet normal 0.999048 -0.0436194 0
    outer loop
      vertex 60.0138 35.632 10
      vertex 59.9965 35.2356 10
      vertex 60.0138 35.632 0
    endloop
  endfacet
  facet normal 0.0436194 0.999048 0
    outer loop
      vertex -62.8691 40.9971 0
      vertex -62.8691 40.9971 10
      vertex 60.0138 35.632 0
    endloop
  endfacet
  facet normal 0.0436194 0.999048 0
    outer loop
      vertex 60.0138 35.632 0
      vertex -62.8691 40.9971 10
      vertex 60.0138 35.632 10
    endloop
  endfacet
  facet normal -0.999048 0.0436194 0
    outer loop
      vertex -62.8692 40.9952 0
      vertex -62.8692 40.9952 10
      vertex -62.8691 40.9971 0
    endloop
  endfacet
  facet normal -0.999048 0.0436194 0
    outer loop
      vertex -62.8691 40.9971 0
      vertex -62.8692 40.9952 10
      vertex -62.8691 40.9971 10
    endloop
  endfacet
  facet normal 0.0436194 0.999048 0
    outer loop
      vertex -62.9564 40.999 0
      vertex -62.9564 40.999 20
      vertex -62.8692 40.9952 0
    endloop
  endfacet
  facet normal 0.0436194 0.999048 0
    outer loop
      vertex -62.8692 40.9952 10
      vertex -62.9564 40.999 20
      vertex 59.9266 35.6339 20
    endloop
  endfacet
  facet normal 0.0436194 0.999048 0
    outer loop
      vertex -62.8692 40.9952 0
      vertex -62.9564 40.999 20
      vertex -62.8692 40.9952 10
    endloop
  endfacet
  facet normal 0.0436194 0.999048 0
    outer loop
      vertex -62.8692 40.9952 10
      vertex 59.9266 35.6339 20
      vertex 59.9266 35.6339 10
    endloop
  endfacet
  facet normal -0.999048 0.0436194 0
    outer loop
      vertex -63 40 0
      vertex -63 40 20
      vertex -62.9564 40.999 0
    endloop
  endfacet
  facet normal -0.999048 0.0436194 0
    outer loop
      vertex -62.9564 40.999 0
      vertex -63 40 20
      vertex -62.9564 40.999 20
    endloop
  endfacet
  facet normal -0.0436194 -0.999048 0
    outer loop
      vertex -63 40 20
      vertex -63 40 0
      vertex -62.9128 39.9962 0
    endloop
  endfacet
  facet normal -0.0436194 -0.999048 0
    outer loop
      vertex 58.4174 34.6988 10
      vertex -63 40 20
      vertex -62.9128 39.9962 10
    endloop
  endfacet
  facet normal -0.0436194 -0.999048 0
    outer loop
      vertex -62.9128 39.9962 10
      vertex -63 40 20
      vertex -62.9128 39.9962 0
    endloop
  endfacet
  facet normal -0.0436194 -0.999048 0
    outer loop
      vertex 58.4174 34.6988 17
      vertex -63 40 20
      vertex 58.4174 34.6988 10
    endloop
  endfacet
  facet normal -0.0436194 -0.999048 0
    outer loop
      vertex 59.8829 34.6348 17
      vertex -63 40 20
      vertex 58.4174 34.6988 17
    endloop
  endfacet
  facet normal -0.0436194 -0.999048 0
    outer loop
      vertex 59.8829 34.6348 20
      vertex -63 40 20
      vertex 59.8829 34.6348 17
    endloop
  endfacet
  facet normal -0.999048 0.0436194 0
    outer loop
      vertex -62.9607 38.8995 0
      vertex -62.9607 38.8995 10
      vertex -62.9128 39.9962 0
    endloop
  endfacet
  facet normal -0.999048 0.0436194 0
    outer loop
      vertex -62.9128 39.9962 0
      vertex -62.9607 38.8995 10
      vertex -62.9128 39.9962 10
    endloop
  endfacet
  facet normal 0.99863 0.052336 0
    outer loop
      vertex -59.8669 34.8632 7
      vertex -60.0245 37.8701 7
      vertex -60.0245 37.8701 10
    endloop
  endfacet
  facet normal 0.99863 0.052336 0
    outer loop
      vertex -56.5139 -29.1166 0
      vertex -59.8669 34.8632 7
      vertex -56.5139 -29.1166 10
    endloop
  endfacet
  facet normal 0.99863 0.052336 0
    outer loop
      vertex -56.5139 -29.1166 10
      vertex -59.8669 34.8632 7
      vertex -60.0245 37.8701 10
    endloop
  endfacet
  facet normal 0.99863 0.052336 0
    outer loop
      vertex -59.8669 34.8632 0
      vertex -59.8669 34.8632 7
      vertex -56.5139 -29.1166 0
    endloop
  endfacet
  facet normal -0.0436194 -0.999048 0
    outer loop
      vertex -59.8669 34.8632 7
      vertex -59.8669 34.8632 0
      vertex 54.8228 29.8557 0
    endloop
  endfacet
  facet normal -0.0436194 -0.999048 0
    outer loop
      vertex 54.8228 29.8557 7
      vertex -59.8669 34.8632 7
      vertex 54.8228 29.8557 0
    endloop
  endfacet
  facet normal -0.992546 0.121869 0
    outer loop
      vertex 46.9163 -34.5371 0
      vertex 46.9163 -34.5371 10
      vertex 54.8228 29.8557 0
    endloop
  endfacet
  facet normal -0.992546 0.121869 0
    outer loop
      vertex 54.8228 29.8557 7
      vertex 46.9163 -34.5371 10
      vertex 55.1892 32.8397 10
    endloop
  endfacet
  facet normal -0.992546 0.121869 0
    outer loop
      vertex 54.8228 29.8557 0
      vertex 46.9163 -34.5371 10
      vertex 54.8228 29.8557 7
    endloop
  endfacet
  facet normal -0.992546 0.121869 0
    outer loop
      vertex 54.8228 29.8557 7
      vertex 55.1892 32.8397 10
      vertex 55.1892 32.8397 7
    endloop
  endfacet
  facet normal 0.052336 0.99863 0
    outer loop
      vertex -58.4766 -29.0137 10
      vertex -58.4766 -29.0137 19
      vertex -56.5139 -29.1166 10
    endloop
  endfacet
  facet normal 0.052336 0.99863 0
    outer loop
      vertex -56.5139 -29.1166 10
      vertex -58.4766 -29.0137 19
      vertex 51.3726 -34.7707 19
    endloop
  endfacet
  facet normal 0.052336 0.99863 0
    outer loop
      vertex 49.8971 -34.6933 17
      vertex 51.3726 -34.7707 19
      vertex 51.3726 -34.7707 17
    endloop
  endfacet
  facet normal 0.052336 0.99863 0
    outer loop
      vertex -56.5139 -29.1166 10
      vertex 51.3726 -34.7707 19
      vertex 49.8971 -34.6933 17
    endloop
  endfacet
  facet normal 0.052336 0.99863 0
    outer loop
      vertex 46.9163 -34.5371 10
      vertex -56.5139 -29.1166 10
      vertex 49.8971 -34.6933 17
    endloop
  endfacet
  facet normal 0.052336 0.99863 0
    outer loop
      vertex 46.9163 -34.5371 10
      vertex 46.9163 -34.5371 0
      vertex -56.5139 -29.1166 10
    endloop
  endfacet
  facet normal 0.052336 0.99863 0
    outer loop
      vertex 49.8971 -34.6933 10
      vertex 46.9163 -34.5371 10
      vertex 49.8971 -34.6933 17
    endloop
  endfacet
  facet normal 0.052336 0.99863 0
    outer loop
      vertex -56.5139 -29.1166 10
      vertex 46.9163 -34.5371 0
      vertex -56.5139 -29.1166 0
    endloop
  endfacet
  facet normal 0 0 1
    outer loop
      vertex -58.4766 -29.0137 10
      vertex -56.5139 -29.1166 10
      vertex -62.0836 38.9454 10
    endloop
  endfacet
  facet normal 0 0 1
    outer loop
      vertex -62.9128 39.9962 10
      vertex -62.9607 38.8995 10
      vertex -62.0836 38.9454 10
    endloop
  endfacet
  facet normal 0 0 1
    outer loop
      vertex -60.0245 37.8701 10
      vertex -62.9128 39.9962 10
      vertex -62.0836 38.9454 10
    endloop
  endfacet
  facet normal 0 0 1
    outer loop
      vertex -58.4993 -29.4463 10
      vertex -58.4766 -29.0137 10
      vertex -62.0836 38.9454 10
    endloop
  endfacet
  facet normal 0 0 1
    outer loop
      vertex 55.1892 32.8397 10
      vertex 58.4174 34.6988 10
      vertex -62.9128 39.9962 10
    endloop
  endfacet
  facet normal 0 0 1
    outer loop
      vertex -56.5139 -29.1166 10
      vertex -60.0245 37.8701 10
      vertex -62.0836 38.9454 10
    endloop
  endfacet
  facet normal 0 0 1
    outer loop
      vertex -60.0245 37.8701 10
      vertex 55.1892 32.8397 10
      vertex -62.9128 39.9962 10
    endloop
  endfacet
  facet normal 0 0 1
    outer loop
      vertex 46.9163 -34.5371 10
      vertex 49.8971 -34.6933 10
      vertex 55.1892 32.8397 10
    endloop
  endfacet
  facet normal 0 0 1
    outer loop
      vertex 49.8971 -34.6933 10
      vertex 58.4174 34.6988 10
      vertex 55.1892 32.8397 10
    endloop
  endfacet
  facet normal 0.99863 0.052336 0
    outer loop
      vertex -58.4993 -29.4463 10
      vertex -62.0836 38.9454 10
      vertex -62.0836 38.9454 15
    endloop
  endfacet
  facet normal 0.99863 0.052336 0
    outer loop
      vertex -58.4993 -29.4463 15
      vertex -58.4993 -29.4463 10
      vertex -62.0836 38.9454 15
    endloop
  endfacet
  facet normal 0 0 1
    outer loop
      vertex -58.4766 -29.0137 19
      vertex -59 -39 19
      vertex 50.8492 -44.757 19
    endloop
  endfacet
  facet normal 0 0 1
    outer loop
      vertex 51.3726 -34.7707 19
      vertex -58.4766 -29.0137 19
      vertex 50.8492 -44.757 19
    endloop
  endfacet
  facet normal 0 0 1
    outer loop
      vertex 58.4174 34.6988 17
      vertex 49.8971 -34.6933 17
      vertex 51.3726 -34.7707 17
    endloop
  endfacet
  facet normal 0 0 1
    outer loop
      vertex 50.981 -42.2432 17
      vertex 58.4174 34.6988 17
      vertex 51.3726 -34.7707 17
    endloop
  endfacet
  facet normal 0 0 1
    outer loop
      vertex 50.981 -42.2432 17
      vertex 50.9851 -42.2437 17
      vertex 58.4174 34.6988 17
    endloop
  endfacet
  facet normal 0 0 1
    outer loop
      vertex 50.9851 -42.2437 17
      vertex 59.8829 34.6348 17
      vertex 58.4174 34.6988 17
    endloop
  endfacet
  facet normal 0 0 1
    outer loop
      vertex 50.9851 -42.2437 17
      vertex 60.4909 35.1749 17
      vertex 59.8829 34.6348 17
    endloop
  endfacet
  facet normal 0 0 1
    outer loop
      vertex 59.9096 35.2462 17
      vertex 59.8829 34.6348 17
      vertex 60.4909 35.1749 17
    endloop
  endfacet
  facet normal -0.121869 -0.992546 0
    outer loop
      vertex 50.981 -42.2432 17
      vertex 50.981 -42.2432 10
      vertex 50.9851 -42.2437 10
    endloop
  endfacet
  facet normal -0.121869 -0.992546 0
    outer loop
      vertex 50.9851 -42.2437 17
      vertex 50.981 -42.2432 17
      vertex 50.9851 -42.2437 10
    endloop
  endfacet
  facet normal 0 0 1
    outer loop
      vertex 50.981 -42.2432 10
      vertex 50.9618 -42.6092 10
      vertex 50.9627 -42.6093 10
    endloop
  endfacet
  facet normal 0 0 1
    outer loop
      vertex 50.9851 -42.2437 10
      vertex 50.981 -42.2432 10
      vertex 50.9627 -42.6093 10
    endloop
  endfacet
  facet normal 0 0 1
    outer loop
      vertex 60.4685 34.8093 10
      vertex 50.9851 -42.2437 10
      vertex 50.9627 -42.6093 10
    endloop
  endfacet
  facet normal 0 0 1
    outer loop
      vertex 60.4463 34.812 10
      vertex 50.9851 -42.2437 10
      vertex 60.4685 34.8093 10
    endloop
  endfacet
  facet normal 0 0 1
    outer loop
      vertex 59.9104 30.2634 7
      vertex 59.8335 29.637 7
      vertex 59.8829 29.6348 7
    endloop
  endfacet
  facet normal 0 0 1
    outer loop
      vertex 59.9096 35.2462 10
      vertex 59.9965 35.2356 10
      vertex 59.9266 35.6339 10
    endloop
  endfacet
  facet normal 0 0 1
    outer loop
      vertex -62.8691 40.9971 10
      vertex -62.8692 40.9952 10
      vertex 59.9266 35.6339 10
    endloop
  endfacet
  facet normal 0 0 1
    outer loop
      vertex 60.0138 35.632 10
      vertex -62.8691 40.9971 10
      vertex 59.9266 35.6339 10
    endloop
  endfacet
  facet normal 0 0 1
    outer loop
      vertex 59.9965 35.2356 10
      vertex 60.0138 35.632 10
      vertex 59.9266 35.6339 10
    endloop
  endfacet
  facet normal 0.999048 -0.0436194 0
    outer loop
      vertex 59.8829 34.6348 20
      vertex 59.8829 34.6348 17
      vertex 59.9096 35.2462 17
    endloop
  endfacet
  facet normal 0.999048 -0.0436194 0
    outer loop
      vertex 59.9266 35.6339 20
      vertex 59.8829 34.6348 20
      vertex 59.9096 35.2462 17
    endloop
  endfacet
  facet normal 0.999048 -0.0436194 0
    outer loop
      vertex 59.9096 35.2462 10
      vertex 59.9266 35.6339 10
      vertex 59.9096 35.2462 17
    endloop
  endfacet
  facet normal 0.999048 -0.0436194 0
    outer loop
      vertex 59.9266 35.6339 10
      vertex 59.9266 35.6339 20
      vertex 59.9096 35.2462 17
    endloop
  endfacet
  facet normal 0 0 1
    outer loop
      vertex -62.9564 40.999 20
      vertex -63 40 20
      vertex 59.8829 34.6348 20
    endloop
  endfacet
  facet normal 0 0 1
    outer loop
      vertex 59.9266 35.6339 20
      vertex -62.9564 40.999 20
      vertex 59.8829 34.6348 20
    endloop
  endfacet
  facet normal -0.992546 0.121869 0
    outer loop
      vertex 49.8971 -34.6933 10
      vertex 49.8971 -34.6933 17
      vertex 58.4174 34.6988 10
    endloop
  endfacet
  facet normal -0.992546 0.121869 0
    outer loop
      vertex 58.4174 34.6988 10
      vertex 49.8971 -34.6933 17
      vertex 58.4174 34.6988 17
    endloop
  endfacet
  facet normal 0 0 1
    outer loop
      vertex 55.1892 32.8397 7
      vertex -60.0245 37.8701 7
      vertex -59.8669 34.8632 7
    endloop
  endfacet
  facet normal 0 0 1
    outer loop
      vertex 54.8228 29.8557 7
      vertex 55.1892 32.8397 7
      vertex -59.8669 34.8632 7
    endloop
  endfacet
  facet normal -0.0436194 -0.999048 0
    outer loop
      vertex -60.0245 37.8701 10
      vertex -60.0245 37.8701 7
      vertex 55.1892 32.8397 7
    endloop
  endfacet
  facet normal -0.0436194 -0.999048 0
    outer loop
      vertex 55.1892 32.8397 10
      vertex -60.0245 37.8701 10
      vertex 55.1892 32.8397 7
    endloop
  endfacet
endsolid OpenSCAD_Model
