solid OpenSCAD_Model
  facet normal -1 0 0
    outer loop
      vertex -66.5 -44.5 30.2
      vertex -66.5 40.5 30.2
      vertex -66.5 -44.5 0.2
    endloop
  endfacet
  facet normal -1 0 0
    outer loop
      vertex -66.5 -44.5 0.2
      vertex -66.5 40.5 30.2
      vertex -66.5 40.5 0.2
    endloop
  endfacet
  facet normal 0 0 1
    outer loop
      vertex -66.5 -44.5 30.2
      vertex 60.5 -44.5 30.2
      vertex 60.5 40.5 30.2
    endloop
  endfacet
  facet normal 0 0 1
    outer loop
      vertex -66.5 40.5 30.2
      vertex -66.5 -44.5 30.2
      vertex 60.5 40.5 30.2
    endloop
  endfacet
  facet normal 0 -1 0
    outer loop
      vertex -66.5 -44.5 0.2
      vertex 60.5 -44.5 0.2
      vertex 60.5 -44.5 30.2
    endloop
  endfacet
  facet normal 0 -1 0
    outer loop
      vertex -66.5 -44.5 30.2
      vertex -66.5 -44.5 0.2
      vertex 60.5 -44.5 30.2
    endloop
  endfacet
  facet normal 0 0 -1
    outer loop
      vertex -66.5 40.5 0.2
      vertex 60.5 40.5 0.2
      vertex -66.5 -44.5 0.2
    endloop
  endfacet
  facet normal 0 0 -1
    outer loop
      vertex -66.5 -44.5 0.2
      vertex 60.5 40.5 0.2
      vertex 60.5 -44.5 0.2
    endloop
  endfacet
  facet normal 0 1 0
    outer loop
      vertex -66.5 40.5 30.2
      vertex 60.5 40.5 30.2
      vertex -66.5 40.5 0.2
    endloop
  endfacet
  facet normal 0 1 0
    outer loop
      vertex -66.5 40.5 0.2
      vertex 60.5 40.5 30.2
      vertex 60.5 40.5 0.2
    endloop
  endfacet
  facet normal 1 0 0
    outer loop
      vertex 60.5 -44.5 0.2
      vertex 60.5 40.5 0.2
      vertex 60.5 40.5 30.2
    endloop
  endfacet
  facet normal 1 0 0
    outer loop
      vertex 60.5 -44.5 30.2
      vertex 60.5 -44.5 0.2
      vertex 60.5 40.5 30.2
    endloop
  endfacet
endsolid OpenSCAD_Model
